<?xml version="1.0" encoding="UTF-8"?>
<svg xmlns="http://www.w3.org/2000/svg" version="1.1" xmlns:xlink="http://www.w3.org/1999/xlink" viewBox="0 0 1920 447">
  <defs>
    <style>
      .cls-1 {
        fill: #e3a6a7;
      }

      .cls-2 {
        fill: none;
      }

      .cls-3 {
        clip-path: url(#clippath-1);
      }

      .cls-4 {
        fill: #166671;
      }

      .cls-5 {
        fill: url(#Degradado_sin_nombre);
      }

      .cls-6 {
        fill: #a00a37;
      }

      .cls-7 {
        clip-path: url(#clippath);
      }
    </style>
    <clipPath id="clippath">
      <rect class="cls-2" y="8.1" width="1920" height="447"/>
    </clipPath>
    <clipPath id="clippath-1">
      <path class="cls-2" d="M1074.5,123.1c0-2.1-1.7-3.8-3.8-3.8-32.8,0-56.7-4.6-73.4-15.5l44.3-57c1.2-1.5,1.1-3.7-.3-5.1-1.4-1.4-3.5-1.5-5.1-.3l-57,44.4c-10.9-16.8-15.5-40.7-15.5-73.5s-1.7-3.8-3.8-3.8-3.8,1.7-3.8,3.8c0,32.8-4.6,56.7-15.5,73.5l-57-44.4c-1.5-1.2-3.7-1.1-5,.3-1.4,1.4-1.5,3.5-.3,5.1l44.3,57c-16.8,10.9-40.6,15.5-73.4,15.5s-3.8,1.7-3.8,3.8,1.7,3.8,3.8,3.8c32.8,0,56.7,4.6,73.4,15.5l-44.3,57c-1.2,1.5-1,3.7.3,5.1,1.4,1.4,3.5,1.5,5,.3l57-44.4c10.9,16.8,15.5,40.7,15.5,73.5s1.7,3.8,3.8,3.8,3.8-1.7,3.8-3.8c0-32.8,4.6-56.7,15.5-73.5l57,44.4c.7.5,1.5.8,2.3.8s2-.4,2.7-1.1c1.4-1.4,1.5-3.5.3-5.1l-44.3-57c16.8-10.9,40.6-15.5,73.4-15.5s3.8-1.7,3.8-3.8h0ZM1016.7,66.4l-25.6,32.9c-2.6-2.2-5.1-4.6-7.3-7.3l32.9-25.6h0ZM903.3,66.4l32.9,25.6c-2.2,2.6-4.7,5.1-7.3,7.3l-25.6-32.9h0ZM903.3,179.8l25.6-32.9c2.6,2.2,5.1,4.6,7.3,7.3l-32.9,25.6h0ZM1016.7,179.8l-32.9-25.6c2.2-2.6,4.7-5.1,7.3-7.3l25.6,32.9h0ZM992.5,136.2c-1.1.7-2.1,1.4-3.2,2.2-1,.8-2,1.5-3,2.3-3.2,2.6-6,5.5-8.7,8.7-.8,1-1.6,2-2.3,3-.8,1-1.5,2.1-2.2,3.1-6,9.2-10.4,20.4-13.1,33.7-2.7-13.4-7-24.5-13.1-33.7-.7-1.1-1.4-2.1-2.2-3.1-.8-1-1.5-2.1-2.3-3-2.6-3.2-5.5-6.1-8.7-8.7-1-.8-2-1.6-3-2.3-1-.8-2.1-1.5-3.2-2.2-9.2-6-20.3-10.4-33.7-13.1,13.4-2.7,24.5-7.1,33.7-13.1,1.1-.7,2.1-1.4,3.2-2.2,1-.8,2.1-1.5,3-2.3,3.2-2.6,6-5.5,8.7-8.7.8-1,1.6-2,2.3-3,.8-1,1.5-2.1,2.2-3.1,6-9.2,10.4-20.4,13.1-33.7,2.7,13.4,7,24.5,13.1,33.7.7,1.1,1.4,2.1,2.2,3.1.8,1,1.5,2.1,2.3,3,2.6,3.2,5.5,6,8.7,8.7,1,.8,2,1.6,3,2.3,1,.8,2.1,1.5,3.2,2.2,9.2,6,20.3,10.4,33.7,13.1-13.4,2.7-24.5,7-33.7,13.1ZM963.8,269.3v132c0,2.1-1.7,3.8-3.8,3.8s-3.8-1.7-3.8-3.8v-132c0-2.1,1.7-3.8,3.8-3.8s3.8,1.7,3.8,3.8ZM1153.9,322.5l-93.3-93.3c-1.5-1.5-1.5-3.9,0-5.4s3.9-1.5,5.4,0l93.3,93.3c1.5,1.5,1.5,3.9,0,5.4-.8.7-1.7,1.1-2.7,1.1s-2-.4-2.7-1.1ZM760.7,322.5c-1.5-1.5-1.5-3.9,0-5.4l93.3-93.3c1.5-1.5,3.9-1.5,5.4,0s1.5,3.9,0,5.4l-93.3,93.3c-.8.7-1.7,1.1-2.7,1.1s-2-.4-2.7-1.1h0ZM991.9,200.6c-.5.2-1,.3-1.5.3-1.5,0-2.9-.9-3.5-2.4l-.7-1.6c-.8-2,.1-4.2,2.1-5,1.9-.8,4.2.1,5,2.1l.7,1.6c.8,1.9-.1,4.2-2.1,5h0ZM1014.6,265.8c-.8-2,.1-4.2,2.1-5s4.2.1,5,2.1l.7,1.6c.8,2-.1,4.2-2.1,5-.5.2-1,.3-1.5.3-1.5,0-2.9-.9-3.5-2.4l-.6-1.6h0ZM1007.5,248.6c-.8-2,.1-4.2,2.1-5,2-.8,4.2.1,5,2.1l.6,1.6c.8,2-.1,4.2-2.1,5-.5.2-1,.3-1.5.3-1.5,0-2.9-.9-3.5-2.4l-.7-1.6h0ZM1021.7,282.9c-.8-2,.1-4.2,2.1-5,2-.8,4.2.1,5,2.1l.7,1.6c.8,1.9-.1,4.2-2.1,5-.5.2-1,.3-1.5.3-1.5,0-2.9-.9-3.5-2.4l-.7-1.6h0ZM993.4,214.1c-.8-2,.1-4.2,2.1-5s4.2.1,5,2.1l.7,1.6c.8,2-.1,4.2-2.1,5-.5.2-1,.3-1.5.3-1.5,0-2.9-.9-3.5-2.4l-.7-1.6h0ZM1035.9,317.4c-.8-2,.1-4.2,2.1-5s4.2.1,5,2.1l.7,1.6c.8,1.9-.1,4.2-2.1,5-.5.2-1,.3-1.4.3-1.5,0-2.9-.9-3.5-2.4l-.7-1.6ZM1000.5,231.4c-.8-2,.1-4.2,2.1-5,2-.8,4.2.1,5,2.1l.6,1.6c.8,2-.1,4.2-2.1,5-.5.2-1,.3-1.5.3-1.5,0-2.9-.9-3.5-2.4l-.7-1.6h0ZM1028.8,300.1c-.8-2,.1-4.2,2.1-5,1.9-.8,4.2.1,5,2.1l.6,1.6c.8,2-.1,4.2-2.1,5-.5.2-1,.3-1.4.3-1.5,0-2.9-.9-3.5-2.4l-.6-1.6h0ZM1057.1,368.9c-.8-2,.1-4.2,2.1-5,1.9-.8,4.2.1,5,2.1l.6,1.6c.8,1.9-.1,4.2-2.1,5-.5.2-1,.3-1.5.3-1.5,0-2.9-.9-3.5-2.4l-.7-1.6h0ZM1047.2,338.5c-1.5,0-2.9-.9-3.5-2.4l-.6-1.6c-.8-2,.1-4.2,2.1-5,1.9-.8,4.2.1,5,2.1l.7,1.6c.8,2-.1,4.2-2.1,5-.5.2-1,.3-1.4.3ZM1050.1,351.8c-.8-2,.1-4.2,2.1-5,1.9-.8,4.2.1,5,2.1l.7,1.6c.8,2-.1,4.2-2.1,5-.5.2-1,.3-1.4.3-1.5,0-2.9-.9-3.5-2.4l-.6-1.6h0ZM1091.6,68.8c-.8-2,.1-4.2,2.1-5l122-50.3c1.9-.8,4.2.1,5,2.1.8,1.9-.1,4.2-2.1,5l-122,50.3c-.5.2-1,.3-1.4.3-1.5,0-2.9-.9-3.5-2.4h0ZM708,227c.8,1.9-.1,4.2-2.1,5l-1.6.6c-.5.2-1,.3-1.5.3-1.5,0-2.9-.9-3.5-2.4-.8-1.9.1-4.2,2.1-5l1.6-.6c2-.8,4.2.1,5,2.1h0ZM742.3,212.8c.8,2-.1,4.2-2.1,5l-1.6.7c-.5.2-1,.3-1.5.3-1.5,0-2.9-.9-3.5-2.4-.8-2,.1-4.2,2.1-5l1.6-.6c2-.8,4.2.1,5,2.1h0ZM877.8,161.1l-1.6.6c-.5.2-1,.3-1.5.3-1.5,0-2.9-.9-3.5-2.4-.8-1.9.1-4.2,2.1-5l1.6-.7c2-.8,4.2.1,5,2.1.8,1.9-.1,4.2-2.1,5ZM725.2,219.9c.8,2-.1,4.2-2.1,5l-1.6.7c-.5.2-1,.3-1.5.3-1.5,0-2.9-.9-3.5-2.4-.8-2,.1-4.2,2.1-5l1.6-.6c2-.8,4.2.1,5,2.1ZM776.7,198.6c.8,2-.1,4.2-2.1,5l-1.6.6c-.5.2-1,.3-1.5.3-1.5,0-2.9-.9-3.5-2.4-.8-1.9.1-4.2,2.1-5l1.6-.6c2-.8,4.2.1,5,2.1h0ZM811.1,184.5c.8,2-.1,4.2-2.1,5l-1.6.6c-.5.2-1,.3-1.5.3-1.5,0-2.9-.9-3.5-2.4-.8-2,.1-4.2,2.1-5l1.6-.6c2-.8,4.2.1,5,2.1ZM750.9,209.3c-.8-2,.1-4.2,2.1-5l1.6-.6c2-.8,4.2.1,5,2.1.8,1.9-.1,4.2-2.1,5l-1.6.6c-.5.2-1,.3-1.5.3-1.5,0-2.9-.9-3.5-2.4h0ZM828.3,177.4c.8,2-.1,4.2-2.1,5l-1.6.6c-.5.2-1,.3-1.5.3-1.5,0-2.9-.9-3.5-2.4-.8-1.9.1-4.2,2.1-5l1.6-.6c2-.8,4.2.1,5,2.1h0ZM862.7,163.2c.8,2-.1,4.2-2.1,5l-1.6.6c-.5.2-1,.3-1.5.3-1.5,0-2.9-.9-3.5-2.4-.8-2,.1-4.2,2.1-5l1.6-.6c2-.8,4.2.1,5,2.1h0ZM793.9,191.6c.8,2-.1,4.2-2.1,5l-1.6.6c-.5.2-1,.3-1.5.3-1.5,0-2.9-.9-3.5-2.4-.8-2,.1-4.2,2.1-5l1.6-.6c2-.8,4.2.1,5,2.1ZM836.9,173.9c-.8-2,.1-4.2,2.1-5l1.6-.7c2-.8,4.2.1,5,2.1.8,2-.1,4.2-2.1,5l-1.6.6c-.5.2-1,.3-1.5.3-1.5,0-2.9-.9-3.5-2.4h0ZM1178.9,210.1c1.9.8,2.9,3,2.1,5-.6,1.5-2,2.4-3.5,2.4s-1,0-1.5-.3l-1.6-.6c-1.9-.8-2.9-3-2.1-5,.8-2,3.1-2.9,5-2.1l1.6.7h0ZM1069.4,168.6c.8-2,3.1-2.9,5-2.1l1.6.7c1.9.8,2.9,3,2.1,5-.6,1.5-2,2.4-3.5,2.4s-1,0-1.5-.3l-1.6-.6c-1.9-.8-2.9-3-2.1-5h0ZM1196.1,217.3c1.9.8,2.9,3,2.1,5-.6,1.5-2,2.4-3.5,2.4s-1,0-1.5-.3l-1.6-.7c-1.9-.8-2.9-3-2.1-5,.8-1.9,3.1-2.9,5-2.1l1.6.6h0ZM1086.6,175.8c.8-2,3.1-2.9,5-2.1l1.6.6c1.9.8,2.9,3,2.1,5-.6,1.5-2,2.4-3.5,2.4s-1,0-1.5-.3l-1.6-.6c-1.9-.8-2.9-3-2.1-5h0ZM1160.3,210.4c-.5,0-1,0-1.5-.3l-1.6-.6c-1.9-.8-2.9-3-2.1-5,.8-2,3.1-2.9,5-2.1l1.6.7c1.9.8,2.9,3,2.1,5-.6,1.5-2,2.3-3.5,2.3h0ZM1105.8,187.9c-1.9-.8-2.9-3-2.1-5,.8-1.9,3.1-2.9,5-2.1l1.6.6c1.9.8,2.9,3,2.1,5-.6,1.5-2,2.4-3.5,2.4s-1,0-1.5-.3l-1.6-.6h0ZM1122.9,195.1c-1.9-.8-2.9-3.1-2.1-5,.8-2,3-2.9,5-2.1l1.6.6c1.9.8,2.9,3.1,2.1,5-.6,1.5-2,2.4-3.5,2.4s-1,0-1.5-.3l-1.6-.7h0ZM1140.1,202.3c-1.9-.8-2.9-3-2.1-5,.8-2,3.1-2.9,5-2.1l1.6.7c1.9.8,2.9,3,2.1,5-.6,1.5-2,2.3-3.5,2.3s-1,0-1.5-.3l-1.6-.7ZM1213.3,224.4c1.9.8,2.9,3.1,2.1,5-.6,1.5-2,2.4-3.5,2.4s-1,0-1.5-.3l-1.6-.7c-1.9-.8-2.9-3-2.1-5,.8-2,3.1-2.9,5-2.1l1.6.6ZM1043.7,157.9c-.6,1.5-2,2.4-3.5,2.4s-1,0-1.5-.3l-1.6-.7c-1.9-.8-2.9-3-2.1-5,.8-1.9,3.1-2.9,5-2.1l1.6.6c1.9.8,2.9,3,2.1,5h0ZM1058.8,160.1c1.9.8,2.9,3,2.1,5-.6,1.5-2,2.3-3.5,2.3s-1,0-1.5-.3l-1.6-.7c-1.9-.8-2.9-3-2.1-5,.8-1.9,3.1-2.9,5-2.1l1.6.7h0ZM699.7,14.7c.8-1.9,3-2.9,5-2.1l121.8,50.7c2,.8,2.9,3,2.1,5-.6,1.5-2,2.3-3.5,2.3s-1,0-1.5-.3l-121.8-50.7c-2-.8-2.9-3-2.1-5h0ZM873.1,331.9c-2-.8-2.9-3-2.1-5l.7-1.6c.8-2,3-2.9,5-2.1,2,.8,2.9,3.1,2.1,5l-.7,1.6c-.6,1.5-2,2.3-3.5,2.3s-1,0-1.5-.3h0ZM885.9,311.1l-.7,1.6c-.6,1.5-2,2.3-3.5,2.3s-1,0-1.5-.3c-2-.8-2.9-3.1-2.1-5l.7-1.6c.8-1.9,3-2.9,5-2.1,2,.8,2.9,3,2.1,5h0ZM849.6,378.5l.7-1.6c.8-2,3-2.9,5-2.1,2,.8,2.9,3,2.1,5l-.7,1.6c-.6,1.5-2,2.4-3.5,2.4s-1,0-1.5-.3c-2-.8-2.9-3-2.1-5h0ZM894.5,280.4c-2-.8-2.9-3-2.1-5l.7-1.6c.8-2,3-2.9,5-2.1,2,.8,2.9,3.1,2.1,5l-.7,1.6c-.6,1.5-2,2.3-3.5,2.3s-1,0-1.5-.3h0ZM901.7,263.3c-2-.8-2.9-3.1-2.1-5l.7-1.6c.8-1.9,3-2.9,5-2.1,2,.8,2.9,3,2.1,5l-.7,1.6c-.6,1.5-2,2.4-3.5,2.4s-1,0-1.5-.3h0ZM887.4,297.6c-2-.8-2.9-3-2.1-5l.7-1.6c.8-1.9,3-2.9,5-2.1,2,.8,2.9,3,2.1,5l-.7,1.6c-.6,1.5-2,2.4-3.5,2.4s-1,0-1.5-.3h0ZM908.8,246.1c-2-.8-2.9-3-2.1-5l.7-1.6c.8-2,3-2.9,5-2.1,2,.8,2.9,3.1,2.1,5l-.7,1.6c-.6,1.5-2,2.4-3.5,2.4s-1,0-1.5-.3h0ZM923.1,211.7c-2-.8-2.9-3.1-2.1-5l.7-1.6c.8-2,3-2.9,5-2.1,2,.8,2.9,3,2.1,5l-.7,1.6c-.6,1.5-2,2.4-3.5,2.4s-1,0-1.5-.3ZM858.8,366.3c-2-.8-2.9-3-2.1-5l.7-1.6c.8-2,3.1-2.9,5-2.1,2,.8,2.9,3,2.1,5l-.7,1.6c-.6,1.5-2,2.3-3.5,2.3s-1,0-1.5-.3h0ZM865.9,349.1c-2-.8-2.9-3.1-2.1-5l.7-1.6c.8-1.9,3-2.9,5-2.1,2,.8,2.9,3,2.1,5l-.7,1.6c-.6,1.5-2,2.4-3.5,2.4s-1,0-1.5-.3ZM916,228.9c-2-.8-2.9-3-2.1-5l.7-1.6c.8-2,3-2.9,5-2.1,2,.8,2.9,3,2.1,5l-.7,1.6c-.6,1.5-2,2.3-3.5,2.3s-1,0-1.5-.3h0ZM1917.7,271.6c-26.7-11.7-18.4-38.1-16.9-42.3,0-.1,0-.2,0-.3,0-.1,0-.2,0-.2.1-.3.2-.6.2-.9.2-1.2-.2-2.3-1.1-3.2-1.1-1.1-2.7-1.4-4.1-.9-4.4,1.7-8.6,2.5-12.6,2.5,5.9-4.6,9.8-11.7,9.8-19.8,0-13.7-11.2-24.9-24.9-24.9s-5.7.5-8.4,1.5c0-.9.2-1.8.2-2.7,0-13.7-11.2-24.9-24.9-24.9s-24.7,11-24.9,24.5c-4.1-4.9-7-11.2-7.6-19.1-.1-1.5-1.1-2.8-2.6-3.3,0,0,0,0-.1,0-.1,0-.2-.1-.3-.2-1.8-.5-3.5.4-4.3,1.9-3.9,3.9-23.5,21.4-45.2,2.8-.4-.3-.8-.5-1.2-.7-1-.4-2.2-.5-3.2,0-1.6.8-2.3,2.5-1.9,4.2-.3,5-3.6,32.6-37.4,42.3-1.7.5-2.9,2.2-2.8,4,.1,1.8,1.5,3.3,3.3,3.5,34.6,4.6,42.1,31,43.2,36.2,0,1.3.6,2.5,1.6,3.2.3.2.5.4.8.5,0,0,0,0,0,0h0c.1,0,.2.1.3.2.3.1.7.1,1,.1,1.1,0,2.2-.5,2.9-1.3,19.5-22.7,43-5.5,45.6-3.5,0,0,.2.1.2.2.2.1.4.2.6.3,1.1.6,2.4.7,3.6,0,1.3-.7,2.2-2.1,2.1-3.7-.3-3.4,0-6.6.6-9.5,4.2,5.1,10.4,8.6,17.4,9.1-3.2,3.4-7.2,6.2-12.4,8.3-1.4.6-2.4,1.9-2.4,3.4,0,0,0,0,0,.1,0,.1,0,.2,0,.4,0,1.8,1.4,3.2,3.1,3.5,4.8,2.6,27.4,16.3,16,42.3-.2.4-.3.9-.3,1.3-.1,1.1.2,2.2,1,3.1.8.8,1.7,1.2,2.7,1.2s1.3-.2,1.8-.5c4.8-1.1,32.4-5.9,51.4,23.3.7,1.1,1.9,1.7,3.2,1.7s.9,0,1.4-.3c1.7-.7,2.7-2.4,2.4-4.2-5.9-34.6,17.6-49.6,21.9-52,.3-.2.6-.3.7-.4,0,0,.1-.1.2-.2.3-.2.6-.4.8-.6.3-.4.6-.8.8-1.3.1-.3.2-.7.2-1,0,0,0,0,0,0h0c0-.1,0-.3,0-.4,0-1.5-.9-2.8-2.3-3.4h0ZM1884.2,233.9l-23.2,20-30.5,1.1c3.2-2.8,5.7-6,7.7-9.3,5-1.9,9.2-5.5,12.1-10,.7.7,1.7,1.2,2.7,1.2s.9,0,1.4-.3c2-.8,2.9-3,2.2-5l-.5-1.3c-.5-1.2-1.5-1.9-2.6-2.2.1-.5.2-1.1.3-1.6,4.1,3,9.2,4.9,14.7,4.9s.7,0,1.1,0c4.5,1.6,9.5,2.6,14.7,2.5h0ZM1868.4,189.2c9.5,0,17.3,7.7,17.3,17.3s-6.8,16.2-15.5,17.1c-.6,0-1.1.2-1.7.2-8.3,0-15.2-5.8-16.8-13.6-.3-1.2-.4-2.4-.4-3.6,0-9.5,7.7-17.3,17.2-17.3ZM1835.3,163.1c9.5,0,17.3,7.7,17.3,17.3s-5,14.1-11.9,16.3c-1.7.6-3.5.9-5.3.9-6.6,0-12.3-3.8-15.2-9.2-1.3-2.4-2.1-5.1-2.1-8.1,0-9.5,7.7-17.3,17.2-17.3h0ZM1754.2,239.7c-1.2-2.5-2.7-5.3-4.7-8.1-4.5-6.4-11.9-14.1-23.8-19.1.4-.7.7-1.4.6-2.3s-.4-1.6-.9-2.2c10.9-6.7,17.2-15.3,20.7-22.4,1.6-3.1,2.6-6.1,3.4-8.8l14.4,28.2c-.4.7-.7,1.5-.7,2.3,0,.8.4,1.5.9,2.1l-10.1,30ZM1762.1,240.2l10.8-32c.3-1,.2-2-.2-3l-15.2-29.8c13.9,5.8,26.5,1.2,34.7-3.9l-8.3,30.7c0,0-.1,0-.2,0h-1.4c-2.1.2-3.7,2.1-3.5,4.2.2,2,1.8,3.5,3.8,3.5s.2,0,.3,0h1.4c0-.1.2-.2.3-.2l12.8,29.2c-8.9-3.8-22.1-6.6-35.1,1.3h0ZM1810.3,206.3c-3.7,4.4-6,10-6,16.2s.3,4.1.8,6c-.7,1.6-1.3,3.3-1.9,5l-12.3-28.1,8-29.5c3.6,7.8,9.3,13.6,15.5,17.8,1.4,2.2,3.1,4.2,5.1,5.9-.8.4-1.7.8-2.4,1.2-.7-.6-1.7-1-2.7-.9h-1.4c-2.1.3-3.7,2.1-3.5,4.2,0,.9.4,1.6,1,2.2h0ZM1813.2,229c-.8-2-1.3-4.2-1.3-6.5s.4-4.2,1.2-6.1c2.1-5.5,6.9-9.7,12.9-10.8.3,0,.6,0,.9,0,.8-.1,1.5-.2,2.3-.2s2,.1,3,.3c2.1.4,4,1.1,5.8,2.2.1,0,.3.2.4.2,2.6,1.6,4.6,3.9,6,6.6.6,1.1,1,2.2,1.3,3.5.4,1.4.7,2.9.7,4.4,0,3.2-.9,6.2-2.5,8.8-2.4,4-6.3,7-11,8-1.2.3-2.5.5-3.8.5-7.2,0-13.4-4.5-16-10.8h0ZM1828.3,262.7l31.7-1.1c0,0,0,.1,0,.2l.5,1.3c.6,1.5,2,2.4,3.6,2.4s.9,0,1.4-.3c2-.8,2.9-3,2.2-5l-.5-1.3c0,0,0-.1-.1-.2l24.1-20.8c-1,9.6.2,23,11.6,33.1l-33.7-.9c-1,0-2,.4-2.8,1.1l-24,23.3c1.4-15-6.7-25.7-13.9-32h0ZM1898.2,285.7c-4.8,6.2-9.9,15.5-11.2,28.3-.8-.2-1.6-.2-2.4,0s-1.4.9-1.8,1.5c-9.6-8.5-19.7-11.9-27.4-13.2-3.3-.5-6.3-.7-9.1-.7s-.2,0-.3,0l22.7-22.1c.3.1.7.2,1.1.2s.9,0,1.4-.3c.8-.3,1.3-.9,1.8-1.5l31.7.8c-2.1,1.9-4.2,4.1-6.3,6.8h0ZM1862.1,246c.8,2-.2,4.2-2.2,5-.4.2-.9.3-1.4.3-1.5,0-3-.9-3.6-2.4l-.5-1.3c-.8-2,.2-4.2,2.2-5,2-.8,4.2.2,4.9,2.2l.5,1.3h0ZM1873.5,285.5c2-.8,4.2.2,5,2.2l.5,1.3c.8,2-.2,4.2-2.2,5-.5.2-.9.3-1.4.3-1.5,0-3-.9-3.6-2.4l-.5-1.3c-.8-2,.2-4.2,2.2-5h0ZM1879.1,299.8c2-.8,4.2.2,5,2.2l.5,1.3c.8,2-.2,4.2-2.2,5-.5.2-.9.3-1.4.3-1.5,0-3-.9-3.6-2.4l-.5-1.3c-.8-2,.2-4.2,2.2-5h0ZM1757.1,208c.2,2.1-1.4,3.9-3.5,4.1h-1.4c0,.1-.2.1-.3.1-2,0-3.7-1.5-3.8-3.5-.2-2.1,1.4-4,3.5-4.1h1.4c2.1-.3,3.9,1.3,4.1,3.4h0ZM1803.1,204.6c.2,2.1-1.4,4-3.5,4.1h-1.4c0,.1-.2.1-.3.1-2,0-3.7-1.5-3.8-3.5-.2-2.1,1.4-3.9,3.5-4.1h1.4c2.1-.3,3.9,1.3,4.1,3.4h0ZM1741.8,209.1c.2,2.1-1.4,3.9-3.5,4.1h-1.4c0,0-.2.1-.3.1-2,0-3.7-1.5-3.8-3.5-.2-2.1,1.4-3.9,3.5-4.1h1.4c2.2-.2,3.9,1.3,4.1,3.4h0ZM1407.4,118.5h-312.3c-2.1,0-3.8,1.7-3.8,3.8s1.7,3.8,3.8,3.8h157.7l30.6,30.6h-38.4c-2.1,0-3.8,1.7-3.8,3.8s1.7,3.8,3.8,3.8h83.9v111.8c-19.6,1.3-36.6,12.1-46.5,27.9-.2.3-.4.6-.6.9-5.3,8.9-8.4,19.2-8.4,30.3s3,21.1,8.2,29.9c0,0,0,.1,0,.2,0,1.6,1,2.9,2.3,3.5,10.7,15.5,28.6,25.7,48.8,25.7s38.1-10.2,48.8-25.7c1.4-.6,2.3-1.9,2.3-3.5s0-.1,0-.2c5.2-8.8,8.2-19,8.2-29.9s-3.1-21.4-8.4-30.3c-.2-.3-.4-.7-.6-1-9.8-15.8-26.8-26.6-46.5-27.8v-111.8h159.2c0,.2,0,.3,0,.5v111.3c-12.4.8-23.8,5.4-33.1,12.8,0,0-.2.1-.3.2-13.5,10.9-22.2,27.5-22.2,46.2s.6,10.7,1.8,17.8c0,.4.1.8.2,1.1,6.5,37.7,28.4,100.6,57.3,100.6s13.6-3.8,19.7-9.9c.6-.3,1.1-.8,1.4-1.4,6.3-6.9,12.1-16.5,17-27.1.5-.5.7-1.2.8-1.9,4.2-9.3,7.9-19.5,10.9-29.4.2-.4.4-.8.5-1.2,0-.1.2-.6.2-1.4,4.8-16.4,7.7-32,8.4-42.6,0,0,0-.1,0-.2,0-1.6.2-3.1.2-4.4,0-25.8-16.6-47.8-39.6-55.9-.1,0-.3-.1-.4-.1-4.9-1.7-10.1-2.7-15.5-3.1v-111.3c0-.2,0-.3,0-.5h77.6c1.9,18.6,17.7,33.1,36.7,33.1s22.5-5.7,29.3-14.5v106.6l-8.2,29.8-31.3-1.4c-1.7-.1-3.3,1-3.8,2.6s0,3.4,1.5,4.4l26.2,17.3-11,29.4c-.6,1.6,0,3.4,1.3,4.4.7.5,1.5.7,2.2.7s1.7-.3,2.4-.8l24.5-19.6,24.5,19.6c1.3,1.1,3.2,1.1,4.6.1,1.4-1,1.9-2.8,1.3-4.4l-11-29.4,26.2-17.3c1.4-.9,2.1-2.7,1.5-4.4-.5-1.6-2.1-2.8-3.8-2.6l-31.3,1.4-8.2-29.8v-106.6c6.8,8.8,17.4,14.4,29.3,14.4s11.3-1.4,16.2-3.8c12.3-6,20.8-18.6,20.8-33.2s-1.7-3.8-3.8-3.8-3.8,1.7-3.8,3.8c0,16.1-13.1,29.3-29.3,29.3s-29.3-13.1-29.3-29.3-1.7-3.8-3.8-3.8-3.8,1.7-3.8,3.8c0,16.1-13.1,29.3-29.3,29.3s-29.3-13.1-29.3-29.3-1.7-3.8-3.8-3.8h-98.9l-30.6-30.6h391.5c29.6,0,53.7,24.1,53.7,53.7s1.7,3.8,3.8,3.8,3.8-1.7,3.8-3.8c0-33.9-27.5-61.4-61.4-61.4h-439ZM1650.6,304.6l5.4,19.8c.5,1.7,2.1,3,3.9,2.8l20.5-.9-17.1,11.3c-1.5,1-2.1,2.9-1.5,4.5l7.2,19.2-16-12.8c-1.4-1.1-3.4-1.1-4.8,0l-16,12.8,7.2-19.2c.6-1.7,0-3.6-1.5-4.5l-17.1-11.3,20.5.9c1.8.2,3.4-1.1,3.9-2.8l5.4-19.8h0ZM1499.5,447.2c-20.7,0-40.4-49.3-48.2-85.5,1.2.9,2.4,1.8,3.8,2.9,17.1,13.3,48.2,40.8,56.8,70.3.5,1.8,1,3.6,1.3,5.5-4.4,4.3-9,6.8-13.7,6.8h0ZM1519.4,433.2c-11.5-40.8-60.9-76.1-70.1-82.4-.9-5.9-1.4-11.2-1.4-15.4,0-12.9,4.8-24.7,12.6-33.8.5,13.7,5.6,38.5,32.6,57.2,9.2,6.3,16.1,13.1,21.3,19.7,6.8,8.5,10.8,16.6,13.2,22.9,2.1,5.6,2.9,9.7,3.2,11.6-3.5,7.6-7.4,14.5-11.5,20.1h0ZM1542.6,381.5c-2,6.6-4.3,13.3-6.8,19.8-3.9-11.8-13.2-30-34.8-46.2-1.2-.9-2.3-1.8-3.5-2.6-26.9-18.7-29.6-43.8-29.4-54.6,0-1.6.1-2.8.2-3.7,4.8-3.7,10.2-6.5,16.1-8.3.6,9.6,4.4,32.5,27.2,48.8,5.3,3.8,9.6,7.5,13.3,11,13.6,13.2,17,24.5,17.7,30.9.3,2.4.2,4.1,0,4.9h0ZM1551,331.8c-1-.8-1.9-1.7-2.8-2.6-9.3-9-16.3-21.5-20.8-31.4-1.4-3-2.5-5.7-3.4-8.1,15.2,8.2,25.8,23.8,27.1,42h0ZM1514.3,285.8c2.8,8.4,14.7,40.7,36.6,55.5-.5,6.5-1.8,14.3-3.7,22.8-4-9.9-12.7-22.4-31.2-35.7-.7-.5-1.3-1-1.9-1.5-16.1-12.5-20.6-28.8-21.8-38-.2-1.9-.3-3.5-.4-4.7,2.5-.4,5-.6,7.5-.6,5.2,0,10.1.8,14.8,2.2h0ZM1294.3,156.8l-30.6-30.6h27.4l30.6,30.6h-27.4ZM1332.8,387c-15.5,0-29.4-6.9-38.9-17.7h77.7c-9.5,10.8-23.4,17.7-38.9,17.7ZM1377.8,310.1c4.2,7.5,6.6,16,6.6,25.1s-2.7,18.6-7.3,26.3h-88.8c-4.6-7.7-7.3-16.7-7.3-26.3s2.4-17.7,6.6-25.1h90.2ZM1372.6,302.5h-79.8c9.5-11.5,23.8-18.9,39.9-18.9s30.4,7.4,39.9,18.9h0ZM1333.5,156.8c-.2,0-.4-.1-.7-.1s-.2,0-.3,0l-30.5-30.5h27.4l30.6,30.6h-26.5ZM1370.8,156.8l-30.6-30.6h27.4l30.6,30.6h-27.4,0ZM1409,156.8l-30.6-30.6h27.4l30.6,30.6h-27.4ZM1474.7,156.8h-27.4l-30.6-30.6h27.4l30.6,30.6h0ZM1313.7,335.3c0-2.1,1.7-3.8,3.8-3.8h6l-4.2-4.2c-1.5-1.5-1.5-3.9,0-5.4s3.9-1.5,5.4,0l4.2,4.2v-6c0-2.1,1.7-3.8,3.8-3.8s3.8,1.7,3.8,3.8v6l4.2-4.2c1.5-1.5,3.9-1.5,5.4,0s1.5,3.9,0,5.4l-4.2,4.2h6c2.1,0,3.8,1.7,3.8,3.8s-1.7,3.8-3.8,3.8h-6l4.2,4.2c1.5,1.5,1.5,3.9,0,5.4s-1.7,1.1-2.7,1.1-2-.4-2.7-1.1l-4.2-4.2v6c0,2.1-1.7,3.8-3.8,3.8s-3.8-1.7-3.8-3.8v-6l-4.2,4.2c-.8.8-1.7,1.1-2.7,1.1s-2-.4-2.7-1.1c-1.5-1.5-1.5-3.9,0-5.4l4.2-4.2h-6c-2.1,0-3.8-1.7-3.8-3.8h0ZM35.5,303.3l.5-1.3c.8-2,3-2.9,5-2.2,2,.8,2.9,3,2.2,5l-.5,1.3c-.6,1.5-2,2.4-3.6,2.4s-.9,0-1.4-.3c-2-.8-2.9-3-2.2-5h0ZM41.1,288.9l.5-1.3c.8-2,3-2.9,5-2.2,2,.8,2.9,3,2.2,5l-.5,1.3c-.6,1.5-2,2.4-3.6,2.4s-.9,0-1.4-.3c-2-.8-2.9-3-2.2-5ZM60,251c-2-.8-2.9-3-2.2-5l.5-1.3c.8-2,3-2.9,5-2.2,2,.8,2.9,3,2.2,5l-.5,1.3c-.6,1.5-2,2.4-3.6,2.4s-.9,0-1.4-.3h0ZM0,275.4s0,0,0,0c0,.3.1.6.2.9.2.5.4.9.8,1.3.2.3.6.5.9.7,0,0,.1.1.2.1,0,0,.3.2.7.4,4.4,2.5,27.8,17.4,21.9,52-.3,1.8.7,3.5,2.4,4.2.5.2.9.3,1.4.3,1.3,0,2.5-.6,3.2-1.7,19.2-29.4,46.5-24.5,51.4-23.3.6.3,1.2.6,1.9.6,1,0,2-.4,2.7-1.2.8-.9,1.1-2,1-3.1,0-.5,0-.9-.3-1.3-11.4-26.1,11.2-39.8,16-42.3,1.7-.3,3-1.7,3.1-3.5,0-.1,0-.2,0-.3,0,0,0,0,0-.1,0-1.5-1-2.9-2.4-3.4-5.2-2-9.2-4.9-12.4-8.3,7-.5,13.3-3.9,17.5-9.1.6,2.9.8,6.1.6,9.5-.1,1.5.7,3,2,3.7,1.2.6,2.5.5,3.6,0,.2-.1.4-.2.6-.3,0,0,.1,0,.2-.2,2.7-2.1,26.1-19.1,45.6,3.5.7.9,1.8,1.3,2.9,1.3s.7,0,1-.2c.1,0,.2,0,.3-.1,0,0,0,0,0,0,0,0,0,0,.1,0,.3-.1.5-.3.8-.4,1.1-.7,1.7-1.9,1.7-3.3,1.1-5.2,8.6-31.6,43.2-36.2,1.8-.2,3.2-1.7,3.3-3.5.1-1.8-1-3.5-2.8-4-33.8-9.7-37.1-37.4-37.4-42.3.4-1.6-.4-3.4-1.9-4.2-1.1-.5-2.2-.5-3.2,0-.4.2-.8.4-1.2.7-21.6,18.6-41.3,1-45.2-2.8-.8-1.5-2.5-2.4-4.3-1.9-.1,0-.2.1-.3.1,0,0,0,0-.1,0-1.4.5-2.5,1.8-2.6,3.3-.6,8-3.5,14.3-7.6,19.2-.1-13.6-11.2-24.7-24.9-24.7s-24.9,11.2-24.9,24.9,0,1.8.2,2.7c-2.6-.9-5.4-1.5-8.4-1.5-13.7,0-24.9,11.2-24.9,24.9s3.9,15.2,9.8,19.8c-4,0-8.2-.7-12.5-2.5-1.4-.5-3-.2-4.1.9-.8.8-1.2,2-1,3.2,0,0,0,0,0,0,0,.3.1.6.2.9,0,0,0,.1,0,.2,0,0,0,.2.1.3,1.5,4.2,9.9,30.6-16.9,42.3-1.4.6-2.2,1.9-2.3,3.4,0,.1,0,.2,0,.4H0s0,0,0,0ZM106.8,229c-2.6,6.3-8.8,10.8-16,10.8s-2.7-.2-3.9-.5c-4.6-1.1-8.5-4-10.8-8-1.5-2.6-2.5-5.6-2.5-8.8s.3-3,.7-4.4c.3-1.2.8-2.4,1.3-3.5,1.4-2.7,3.5-5,6-6.6.1,0,.3-.1.4-.2,1.8-1.1,3.7-1.8,5.8-2.2,1-.2,2-.3,3-.3s1.6.1,2.3.2c.3,0,.6,0,.9,0,5.9,1.1,10.8,5.3,12.9,10.8.7,1.9,1.2,3.9,1.2,6.1s-.5,4.5-1.3,6.5h0ZM170.4,176.9c.8,2.7,1.9,5.7,3.4,8.8,3.5,7,9.7,15.7,20.7,22.4-.5.6-.9,1.3-.9,2.2,0,.8.2,1.6.6,2.3-11.8,5-19.3,12.6-23.8,19-2,2.8-3.5,5.6-4.7,8.1l-10.1-30c.5-.6.9-1.3.9-2.1,0-.9-.2-1.7-.7-2.3l14.4-28.2h0ZM162.6,175.4l-15.2,29.8c-.5.9-.6,2-.2,3l10.7,32c-6.1-3.7-12.2-5.1-17.9-5.1s-12.4,1.8-17.2,3.8l12.8-29.2c0,0,.2,0,.3,0h1.4c0,.1.2.1.3.1,2,0,3.7-1.5,3.8-3.5.1-2.1-1.4-3.9-3.5-4.1h-1.4c0-.1-.1,0-.2,0l-8.3-30.7c8.2,5.1,20.7,9.7,34.7,3.9h0ZM105.7,193.7c6.2-4.3,11.9-10,15.5-17.8l8,29.5-12.3,28.1c-.5-1.8-1.2-3.4-1.9-5,.5-1.9.8-3.9.8-6,0-6.2-2.3-11.8-6-16.2.5-.6.9-1.3,1-2.2.2-2.1-1.4-3.9-3.5-4.1h-1.4c-1-.2-2,.2-2.7.8-.8-.5-1.6-.9-2.4-1.2,2-1.7,3.7-3.7,5.1-5.9h0ZM84.7,163.1c9.5,0,17.2,7.7,17.2,17.3s-.8,5.8-2.2,8.3c-2.9,5.3-8.5,9-15,9s-3.6-.4-5.3-.9c-6.9-2.2-12-8.7-12-16.4s7.7-17.3,17.3-17.3ZM34.3,206.5c0-9.5,7.7-17.3,17.3-17.3s17.2,7.7,17.2,17.3-.2,2.5-.4,3.6c-1.7,7.8-8.6,13.6-16.8,13.6s-1.2-.1-1.7-.2c-8.7-.9-15.5-8.2-15.5-17.1ZM50.5,231.3c.4,0,.7,0,1.1,0,5.5,0,10.6-1.8,14.7-4.9,0,.5.2,1.1.3,1.6-1.1.3-2.1,1.1-2.6,2.2l-.5,1.3c-.8,2,.2,4.2,2.2,5,.5.2.9.3,1.4.3,1,0,2-.5,2.7-1.2,2.8,4.5,7.1,8,12.1,10,2,3.3,4.5,6.5,7.7,9.3l-30.5-1.1-23.2-20c5.3,0,10.2-.9,14.7-2.5h0ZM28.8,238l24.1,20.8c0,0-.1.1-.2.2l-.5,1.3c-.8,2,.2,4.2,2.2,5,.5.2.9.3,1.4.3,1.5,0,3-.9,3.6-2.4l.5-1.3c0,0,0-.1,0-.2l31.7,1.1c-7.2,6.3-15.4,17-13.9,32l-24-23.3c-.7-.7-1.8-1.1-2.8-1.1l-33.7.9c11.4-10.1,12.6-23.5,11.6-33.1h0ZM47.1,278.1c.4.7,1,1.2,1.8,1.5.5.2.9.3,1.4.3s.7,0,1.1-.2l22.7,22.1c-2.8,0-6,.1-9.4.7-7.8,1.3-17.8,4.7-27.5,13.2-.4-.7-1-1.2-1.8-1.6-.8-.3-1.6-.3-2.3,0-1.3-12.8-6.4-22.1-11.2-28.3-2.1-2.7-4.3-5-6.4-6.8l31.7-.8h0ZM178.2,209.1c.1-2.1,2-3.7,4.1-3.5h1.4c2.1.2,3.7,2.1,3.5,4.2-.1,2-1.8,3.5-3.8,3.5s-.2,0-.3,0h-1.4c-2.1-.3-3.7-2.1-3.5-4.2h0ZM162.9,208c.2-2.1,2-3.7,4.1-3.5h1.4c2.1.3,3.7,2.1,3.5,4.2-.1,2-1.8,3.5-3.8,3.5s-.2,0-.3,0h-1.4c-2.1-.3-3.7-2.1-3.5-4.2h0ZM116.9,204.6c.2-2.1,2-3.7,4.1-3.5h1.4c2.1.3,3.7,2.1,3.5,4.2-.2,2-1.8,3.5-3.8,3.5s-.2,0-.3,0h-1.4c-2.1-.3-3.7-2.1-3.5-4.2h0ZM828.7,122.3c0-2.1-1.7-3.8-3.8-3.8H73.6c-33.8,0-61.4,27.5-61.4,61.4s1.7,3.8,3.8,3.8,3.8-1.7,3.8-3.8c0-29.6,24.1-53.7,53.7-53.7h391.5l-30.6,30.6h-98.9c-2.1,0-3.8,1.7-3.8,3.8,0,16.1-13.1,29.3-29.3,29.3s-29.3-13.1-29.3-29.3-1.7-3.8-3.8-3.8-3.8,1.7-3.8,3.8c0,16.1-13.1,29.3-29.3,29.3s-29.3-13.1-29.3-29.3-1.7-3.8-3.8-3.8-3.8,1.7-3.8,3.8c0,14.6,8.5,27.1,20.8,33.2,4.9,2.4,10.4,3.8,16.2,3.8,11.9,0,22.5-5.7,29.3-14.4v106.6l-8.2,29.8-31.3-1.4c-1.7-.2-3.3,1-3.8,2.6s0,3.4,1.5,4.4l26.2,17.3-11,29.4c-.6,1.6,0,3.4,1.3,4.4.7.5,1.5.7,2.2.7s1.7-.3,2.4-.8l24.5-19.6,24.5,19.6c1.4,1.1,3.2,1.1,4.6.1,1.4-1,1.9-2.8,1.3-4.4l-11-29.4,26.2-17.3c1.4-.9,2.1-2.7,1.5-4.4-.5-1.6-2.1-2.8-3.8-2.6l-31.3,1.4-8.2-29.8v-106.6c6.8,8.8,17.3,14.5,29.3,14.5,19.1,0,34.8-14.5,36.7-33.1h77.6c0,.2-.1.3-.1.5v111.3c-5.4.4-10.6,1.4-15.5,3.1-.1,0-.3,0-.4.1-23,8.1-39.6,30.1-39.6,55.9s0,2.8.2,4.4c0,0,0,.1,0,.2.7,10.5,3.7,26.2,8.4,42.6.1.8.2,1.3.3,1.5.1.4.3.8.5,1.2,3,9.9,6.7,20.1,10.9,29.4.1.7.4,1.3.9,1.9,5,10.7,10.7,20.2,17,27.1.3.6.8,1.1,1.4,1.4,6.1,6.2,12.7,9.9,19.7,9.9,28.9,0,50.8-62.9,57.3-100.6,0-.4.1-.8.2-1.2,1.2-7.1,1.8-13.2,1.8-17.8,0-18.6-8.7-35.3-22.2-46.2,0,0-.2-.1-.3-.2-9.2-7.3-20.6-11.9-33-12.7v-111.3c0-.2,0-.3-.1-.5h159.2v111.8c-19.6,1.3-36.6,12.1-46.5,27.8-.2.3-.4.6-.6,1-5.3,8.9-8.4,19.2-8.4,30.3s3,21.1,8.2,29.9c0,0,0,.1,0,.2,0,1.6,1,2.9,2.4,3.5,10.7,15.5,28.6,25.7,48.8,25.7s38.1-10.2,48.8-25.7c1.4-.6,2.4-1.9,2.4-3.5s0-.1,0-.2c5.2-8.8,8.2-19,8.2-29.9s-3.1-21.4-8.4-30.3c-.2-.3-.4-.7-.6-1-9.8-15.8-26.8-26.6-46.5-27.8v-111.8h83.9c2.1,0,3.8-1.7,3.8-3.8s-1.7-3.8-3.8-3.8h-38.4l30.6-30.6h157.7c2.1,0,3.8-1.7,3.8-3.8h0ZM274.8,324.4c.5,1.7,2.1,3,3.9,2.8l20.5-.9-17.1,11.3c-1.5,1-2.1,2.9-1.5,4.5l7.2,19.2-16-12.8c-1.4-1.1-3.4-1.1-4.8,0l-16,12.8,7.2-19.2c.6-1.7,0-3.6-1.5-4.5l-17.1-11.3,20.5.9c1.8.2,3.4-1.1,3.9-2.8l5.4-19.8,5.4,19.8h0ZM396,289.8c-.9,2.3-2.1,5.1-3.4,8-4.5,9.9-11.5,22.4-20.8,31.4-.9.9-1.9,1.7-2.8,2.5,1.2-18.2,11.8-33.8,27.1-42h0ZM420.5,447.2c-4.6,0-9.3-2.5-13.7-6.8.3-1.8.8-3.7,1.3-5.5,8.5-29.5,39.7-57,56.8-70.3,1.4-1.1,2.6-2,3.8-2.9-7.8,36.2-27.5,85.5-48.2,85.5h0ZM459.5,301.5c7.8,9.1,12.6,20.9,12.6,33.8s-.5,9.5-1.4,15.4c-9.2,6.3-58.6,41.7-70.1,82.4-4.1-5.6-7.9-12.5-11.5-20.1.3-1.8,1.1-5.9,3.1-11.4,2.4-6.4,6.4-14.7,13.4-23.3,5.3-6.5,12.1-13.2,21.2-19.5,27.1-18.8,32.1-43.5,32.6-57.2h0ZM451.7,294.2c0,.9.2,2.2.2,3.7.2,10.8-2.5,35.9-29.4,54.6-1.2.9-2.4,1.8-3.5,2.6-21.7,16.2-31,34.4-34.8,46.2-2.5-6.5-4.8-13.2-6.8-19.8-.1-.9-.2-2.6,0-4.9.7-6.4,4.1-17.7,17.7-30.9,3.6-3.5,8-7.2,13.3-11,22.7-16.2,26.6-39.2,27.2-48.8,5.9,1.8,11.3,4.7,16.1,8.3h0ZM428,284.2c0,1.2-.1,2.8-.4,4.7-1.2,9.2-5.7,25.5-21.8,38-.6.5-1.2,1-1.9,1.5-18.5,13.2-27.2,25.8-31.2,35.7-1.9-8.5-3.2-16.3-3.7-22.8,21.9-14.8,33.8-47.1,36.6-55.5,4.7-1.4,9.7-2.2,14.8-2.2s5.1.3,7.5.6h0ZM445.3,156.8l30.6-30.6h27.4l-30.6,30.6h-27.4ZM483.5,156.8l30.6-30.6h27.4l-30.6,30.6h-27.4ZM521.8,156.8l30.6-30.6h27.4l-30.6,30.6h-27.4,0ZM587.2,387c-15.5,0-29.4-6.9-38.9-17.7h77.7c-9.5,10.8-23.4,17.7-38.9,17.7ZM632.3,310.1c4.2,7.5,6.6,16,6.6,25.1s-2.7,18.6-7.3,26.3h-88.8c-4.6-7.7-7.3-16.7-7.3-26.3s2.4-17.7,6.6-25.1h90.2ZM627.1,302.5h-79.8c9.5-11.5,23.8-18.9,39.9-18.9s30.4,7.4,39.9,18.9h0ZM587.5,156.7c-.1,0-.2,0-.3,0-.2,0-.5,0-.7.1h-26.5l30.6-30.6h27.4l-30.5,30.5h0ZM625.7,156.8h-27.4l30.6-30.6h27.4l-30.6,30.6ZM568.2,335.3c0-2.1,1.7-3.8,3.8-3.8h6l-4.2-4.2c-1.5-1.5-1.5-3.9,0-5.4s3.9-1.5,5.4,0l4.2,4.2v-6c0-2.1,1.7-3.8,3.8-3.8s3.8,1.7,3.8,3.8v6l4.2-4.2c1.5-1.5,3.9-1.5,5.4,0s1.5,3.9,0,5.4l-4.2,4.2h6c2.1,0,3.8,1.7,3.8,3.8s-1.7,3.8-3.8,3.8h-6l4.2,4.2c1.5,1.5,1.5,3.9,0,5.4s-1.7,1.1-2.7,1.1-2-.4-2.7-1.1l-4.2-4.2v6c0,2.1-1.7,3.8-3.8,3.8s-3.8-1.7-3.8-3.8v-6l-4.2,4.2c-.8.8-1.7,1.1-2.7,1.1s-2-.4-2.7-1.1c-1.5-1.5-1.5-3.9,0-5.4l4.2-4.2h-6c-2.1,0-3.8-1.7-3.8-3.8h0Z"/>
    </clipPath>
    <linearGradient id="Degradado_sin_nombre" data-name="Degradado sin nombre" x1="-2584.3" y1="-114.7" x2="-2584.3" y2="-231.4" gradientTransform="translate(10832.2 890.6) scale(3.8)" gradientUnits="userSpaceOnUse">
      <stop offset="0" stop-color="#d8ab3d"/>
      <stop offset="0" stop-color="#d8ac3e"/>
      <stop offset="0" stop-color="#d9ac3e"/>
      <stop offset="0" stop-color="#d9ad3f"/>
      <stop offset="0" stop-color="#d9ad40"/>
      <stop offset="0" stop-color="#d9ae41"/>
      <stop offset="0" stop-color="#daae41"/>
      <stop offset="0" stop-color="#daaf42"/>
      <stop offset="0" stop-color="#daaf43"/>
      <stop offset="0" stop-color="#dab044"/>
      <stop offset="0" stop-color="#dbb044"/>
      <stop offset="0" stop-color="#dbb145"/>
      <stop offset="0" stop-color="#dbb246"/>
      <stop offset="0" stop-color="#dbb246"/>
      <stop offset="0" stop-color="#dcb347"/>
      <stop offset="0" stop-color="#dcb348"/>
      <stop offset="0" stop-color="#dcb449"/>
      <stop offset="0" stop-color="#ddb449"/>
      <stop offset="0" stop-color="#ddb54a"/>
      <stop offset="0" stop-color="#ddb54b"/>
      <stop offset="0" stop-color="#ddb64c"/>
      <stop offset="0" stop-color="#deb64c"/>
      <stop offset="0" stop-color="#deb74d"/>
      <stop offset="0" stop-color="#deb74e"/>
      <stop offset="0" stop-color="#deb84f"/>
      <stop offset="0" stop-color="#dfb84f"/>
      <stop offset="0" stop-color="#dfb950"/>
      <stop offset=".1" stop-color="#dfba51"/>
      <stop offset=".1" stop-color="#dfba52"/>
      <stop offset=".1" stop-color="#e0bb52"/>
      <stop offset=".1" stop-color="#e0bb53"/>
      <stop offset=".1" stop-color="#e0bc54"/>
      <stop offset=".1" stop-color="#e1bc54"/>
      <stop offset=".1" stop-color="#e1bd55"/>
      <stop offset=".1" stop-color="#e1bd56"/>
      <stop offset=".1" stop-color="#e1be57"/>
      <stop offset=".1" stop-color="#e2be57"/>
      <stop offset=".1" stop-color="#e2bf58"/>
      <stop offset=".2" stop-color="#e2bf59"/>
      <stop offset=".2" stop-color="#e2c05a"/>
      <stop offset=".2" stop-color="#e3c05a"/>
      <stop offset=".2" stop-color="#e3c15b"/>
      <stop offset=".2" stop-color="#e3c25c"/>
      <stop offset=".2" stop-color="#e3c25d"/>
      <stop offset=".2" stop-color="#e4c35d"/>
      <stop offset=".2" stop-color="#e4c35e"/>
      <stop offset=".2" stop-color="#e4c45f"/>
      <stop offset=".2" stop-color="#e5c45f"/>
      <stop offset=".2" stop-color="#e5c560"/>
      <stop offset=".2" stop-color="#e5c561"/>
      <stop offset=".2" stop-color="#e5c662"/>
      <stop offset=".2" stop-color="#e6c662"/>
      <stop offset=".2" stop-color="#e6c763"/>
      <stop offset=".2" stop-color="#e6c764"/>
      <stop offset=".2" stop-color="#e6c865"/>
      <stop offset=".2" stop-color="#e7c865"/>
      <stop offset=".2" stop-color="#e7c966"/>
      <stop offset=".2" stop-color="#e7ca67"/>
      <stop offset=".2" stop-color="#e7ca68"/>
      <stop offset=".2" stop-color="#e8cb68"/>
      <stop offset=".2" stop-color="#e8cb69"/>
      <stop offset=".2" stop-color="#e8cc6a"/>
      <stop offset=".2" stop-color="#e9cc6b"/>
      <stop offset=".2" stop-color="#e9cd6b"/>
      <stop offset=".2" stop-color="#e9cd6c"/>
      <stop offset=".2" stop-color="#e9ce6d"/>
      <stop offset=".3" stop-color="#eace6d"/>
      <stop offset=".3" stop-color="#eacf6e"/>
      <stop offset=".3" stop-color="#eacf6f"/>
      <stop offset=".3" stop-color="#ead070"/>
      <stop offset=".3" stop-color="#ebd070"/>
      <stop offset=".3" stop-color="#ebd171"/>
      <stop offset=".3" stop-color="#ebd272"/>
      <stop offset=".3" stop-color="#ebd273"/>
      <stop offset=".3" stop-color="#ecd373"/>
      <stop offset=".3" stop-color="#ecd374"/>
      <stop offset=".3" stop-color="#ecd475"/>
      <stop offset=".3" stop-color="#edd476"/>
      <stop offset=".3" stop-color="#edd576"/>
      <stop offset=".3" stop-color="#edd577"/>
      <stop offset=".3" stop-color="#edd678"/>
      <stop offset=".3" stop-color="#eed678"/>
      <stop offset=".3" stop-color="#eed779"/>
      <stop offset=".3" stop-color="#eed77a"/>
      <stop offset=".3" stop-color="#eed87b"/>
      <stop offset=".3" stop-color="#efd97b"/>
      <stop offset=".3" stop-color="#efd97c"/>
      <stop offset=".3" stop-color="#efda7d"/>
      <stop offset=".3" stop-color="#efda7e"/>
      <stop offset=".3" stop-color="#f0db7e"/>
      <stop offset=".3" stop-color="#f0db7f"/>
      <stop offset=".4" stop-color="#f0dc80"/>
      <stop offset=".4" stop-color="#f1dc81"/>
      <stop offset=".4" stop-color="#f1dd81"/>
      <stop offset=".4" stop-color="#f1dd82"/>
      <stop offset=".4" stop-color="#f1de83"/>
      <stop offset=".4" stop-color="#f2de83"/>
      <stop offset=".4" stop-color="#f2df84"/>
      <stop offset=".4" stop-color="#f2df85"/>
      <stop offset=".4" stop-color="#f2e086"/>
      <stop offset=".4" stop-color="#f3e186"/>
      <stop offset=".4" stop-color="#f3e187"/>
      <stop offset=".4" stop-color="#f3e288"/>
      <stop offset=".4" stop-color="#f3e289"/>
      <stop offset=".4" stop-color="#f4e389"/>
      <stop offset=".4" stop-color="#f4e38a"/>
      <stop offset=".4" stop-color="#f4e48b"/>
      <stop offset=".4" stop-color="#f5e48c"/>
      <stop offset=".4" stop-color="#f5e58c"/>
      <stop offset=".4" stop-color="#f5e58d"/>
      <stop offset=".4" stop-color="#f5e68e"/>
      <stop offset=".4" stop-color="#f6e68f"/>
      <stop offset=".4" stop-color="#f6e78f"/>
      <stop offset=".4" stop-color="#f6e790"/>
      <stop offset=".5" stop-color="#f6e891"/>
      <stop offset=".5" stop-color="#f7e991"/>
      <stop offset=".5" stop-color="#f7e992"/>
      <stop offset=".5" stop-color="#f7ea93"/>
      <stop offset=".5" stop-color="#f7ea94"/>
      <stop offset=".5" stop-color="#f8eb94"/>
      <stop offset=".5" stop-color="#f8eb95"/>
      <stop offset=".5" stop-color="#f8ec96"/>
      <stop offset=".5" stop-color="#f9ec97"/>
      <stop offset=".5" stop-color="#f9ed97"/>
      <stop offset=".5" stop-color="#f9ed98"/>
      <stop offset=".5" stop-color="#f9ee99"/>
      <stop offset=".5" stop-color="#faee9a"/>
      <stop offset=".5" stop-color="#faef9a"/>
      <stop offset=".5" stop-color="#faef9b"/>
      <stop offset=".5" stop-color="#faf09c"/>
      <stop offset=".5" stop-color="#fbf19c"/>
      <stop offset=".5" stop-color="#fbf09c"/>
      <stop offset=".5" stop-color="#faf09b"/>
      <stop offset=".5" stop-color="#faef9b"/>
      <stop offset=".5" stop-color="#faef9a"/>
      <stop offset=".5" stop-color="#f9ee99"/>
      <stop offset=".5" stop-color="#f9ee98"/>
      <stop offset=".5" stop-color="#f9ed98"/>
      <stop offset=".5" stop-color="#f9ec97"/>
      <stop offset=".6" stop-color="#f8ec96"/>
      <stop offset=".6" stop-color="#f8eb95"/>
      <stop offset=".6" stop-color="#f8eb94"/>
      <stop offset=".6" stop-color="#f8ea94"/>
      <stop offset=".6" stop-color="#f7ea93"/>
      <stop offset=".6" stop-color="#f7e992"/>
      <stop offset=".6" stop-color="#f7e891"/>
      <stop offset=".6" stop-color="#f6e891"/>
      <stop offset=".6" stop-color="#f6e790"/>
      <stop offset=".6" stop-color="#f6e78f"/>
      <stop offset=".6" stop-color="#f6e68e"/>
      <stop offset=".6" stop-color="#f5e68e"/>
      <stop offset=".6" stop-color="#f5e58d"/>
      <stop offset=".6" stop-color="#f5e58c"/>
      <stop offset=".6" stop-color="#f4e48b"/>
      <stop offset=".6" stop-color="#f4e38b"/>
      <stop offset=".6" stop-color="#f4e38a"/>
      <stop offset=".6" stop-color="#f4e289"/>
      <stop offset=".6" stop-color="#f3e288"/>
      <stop offset=".6" stop-color="#f3e187"/>
      <stop offset=".6" stop-color="#f3e187"/>
      <stop offset=".6" stop-color="#f2e086"/>
      <stop offset=".6" stop-color="#f2e085"/>
      <stop offset=".6" stop-color="#f2df84"/>
      <stop offset=".6" stop-color="#f2de84"/>
      <stop offset=".6" stop-color="#f1de83"/>
      <stop offset=".7" stop-color="#f1dd82"/>
      <stop offset=".7" stop-color="#f1dd81"/>
      <stop offset=".7" stop-color="#f1dc81"/>
      <stop offset=".7" stop-color="#f0dc80"/>
      <stop offset=".7" stop-color="#f0db7f"/>
      <stop offset=".7" stop-color="#f0db7e"/>
      <stop offset=".7" stop-color="#efda7d"/>
      <stop offset=".7" stop-color="#efd97d"/>
      <stop offset=".7" stop-color="#efd97c"/>
      <stop offset=".7" stop-color="#efd87b"/>
      <stop offset=".7" stop-color="#eed87a"/>
      <stop offset=".7" stop-color="#eed77a"/>
      <stop offset=".7" stop-color="#eed779"/>
      <stop offset=".7" stop-color="#edd678"/>
      <stop offset=".7" stop-color="#edd677"/>
      <stop offset=".7" stop-color="#edd577"/>
      <stop offset=".7" stop-color="#edd476"/>
      <stop offset=".7" stop-color="#ecd475"/>
      <stop offset=".7" stop-color="#ecd374"/>
      <stop offset=".7" stop-color="#ecd373"/>
      <stop offset=".7" stop-color="#ecd273"/>
      <stop offset=".7" stop-color="#ebd272"/>
      <stop offset=".7" stop-color="#ebd171"/>
      <stop offset=".7" stop-color="#ebd070"/>
      <stop offset=".7" stop-color="#ead070"/>
      <stop offset=".8" stop-color="#eacf6f"/>
      <stop offset=".8" stop-color="#eacf6e"/>
      <stop offset=".8" stop-color="#eace6d"/>
      <stop offset=".8" stop-color="#e9ce6d"/>
      <stop offset=".8" stop-color="#e9cd6c"/>
      <stop offset=".8" stop-color="#e9cd6b"/>
      <stop offset=".8" stop-color="#e8cc6a"/>
      <stop offset=".8" stop-color="#e8cb69"/>
      <stop offset=".8" stop-color="#e8cb69"/>
      <stop offset=".8" stop-color="#e8ca68"/>
      <stop offset=".8" stop-color="#e7ca67"/>
      <stop offset=".8" stop-color="#e7c966"/>
      <stop offset=".8" stop-color="#e7c966"/>
      <stop offset=".8" stop-color="#e6c865"/>
      <stop offset=".8" stop-color="#e6c864"/>
      <stop offset=".8" stop-color="#e6c763"/>
      <stop offset=".8" stop-color="#e6c663"/>
      <stop offset=".8" stop-color="#e5c662"/>
      <stop offset=".8" stop-color="#e5c561"/>
      <stop offset=".8" stop-color="#e5c560"/>
      <stop offset=".8" stop-color="#e5c460"/>
      <stop offset=".8" stop-color="#e4c45f"/>
      <stop offset=".8" stop-color="#e4c35e"/>
      <stop offset=".8" stop-color="#e4c35d"/>
      <stop offset=".8" stop-color="#e3c25c"/>
      <stop offset=".8" stop-color="#e3c15c"/>
      <stop offset=".8" stop-color="#e3c15b"/>
      <stop offset=".8" stop-color="#e3c05a"/>
      <stop offset=".9" stop-color="#e2c059"/>
      <stop offset=".9" stop-color="#e2bf59"/>
      <stop offset=".9" stop-color="#e2bf58"/>
      <stop offset=".9" stop-color="#e1be57"/>
      <stop offset=".9" stop-color="#e1be56"/>
      <stop offset=".9" stop-color="#e1bd56"/>
      <stop offset=".9" stop-color="#e1bc55"/>
      <stop offset=".9" stop-color="#e0bc54"/>
      <stop offset=".9" stop-color="#e0bb53"/>
      <stop offset=".9" stop-color="#e0bb52"/>
      <stop offset=".9" stop-color="#e0ba52"/>
      <stop offset=".9" stop-color="#dfba51"/>
      <stop offset=".9" stop-color="#dfb950"/>
      <stop offset=".9" stop-color="#dfb84f"/>
      <stop offset=".9" stop-color="#deb84f"/>
      <stop offset=".9" stop-color="#deb74e"/>
      <stop offset=".9" stop-color="#deb74d"/>
      <stop offset=".9" stop-color="#deb64c"/>
      <stop offset=".9" stop-color="#ddb64c"/>
      <stop offset=".9" stop-color="#ddb54b"/>
      <stop offset=".9" stop-color="#ddb54a"/>
      <stop offset=".9" stop-color="#dcb449"/>
      <stop offset=".9" stop-color="#dcb348"/>
      <stop offset=".9" stop-color="#dcb348"/>
      <stop offset=".9" stop-color="#dcb247"/>
      <stop offset=".9" stop-color="#dbb246"/>
      <stop offset="1" stop-color="#dbb145"/>
      <stop offset="1" stop-color="#dbb145"/>
      <stop offset="1" stop-color="#dab044"/>
      <stop offset="1" stop-color="#dab043"/>
      <stop offset="1" stop-color="#daaf42"/>
      <stop offset="1" stop-color="#daae42"/>
      <stop offset="1" stop-color="#d9ae41"/>
      <stop offset="1" stop-color="#d9ad40"/>
      <stop offset="1" stop-color="#d9ad3f"/>
      <stop offset="1" stop-color="#d9ac3e"/>
      <stop offset="1" stop-color="#d8ac3e"/>
      <stop offset="1" stop-color="#d8ab3d"/>
    </linearGradient>
  </defs>
  <!-- Generator: Adobe Illustrator 28.7.3, SVG Export Plug-In . SVG Version: 1.2.0 Build 164)  -->
  <g>
    <g id="Capa_2">
      <g id="Capa_1-2">
        <path class="cls-6" d="M598.3,156.8h27.4l30.6-30.6h-27.4l-30.6,30.6Z"/>
        <path id="circulo" class="cls-6" d="M94,205.5c-.3,0-.6,0-.9,0-.8-.1-1.5-.2-2.3-.2s-2,.1-3,.3c-2.1.4-4,1.1-5.8,2.2-.1,0-.3.1-.4.2-2.6,1.6-4.6,3.9-6,6.6-.6,1.1-1,2.2-1.3,3.5-.4,1.4-.7,2.9-.7,4.4h0c0,3.2.9,6.2,2.5,8.8,2.4,4,6.2,6.9,10.8,8,1.3.3,2.6.5,3.9.5,7.2,0,13.4-4.5,16-10.8.8-2,1.3-4.2,1.3-6.5s-.4-4.2-1.2-6.1c-2.1-5.5-6.9-9.7-12.9-10.8h0Z"/>
        <path class="cls-4" d="M590.6,126.2l-30.6,30.6h26.5c.2,0,.5-.1.7-.1s.2,0,.3,0l30.5-30.5h-27.4,0Z"/>
        <path id="estrella" class="cls-6" d="M989.3,107.8c-1-.8-2-1.5-3-2.3-3.2-2.6-6-5.5-8.7-8.7-.8-1-1.6-2-2.3-3-.8-1-1.5-2.1-2.2-3.2-6-9.2-10.4-20.3-13.1-33.7-2.7,13.4-7,24.5-13.1,33.7-.7,1.1-1.4,2.1-2.2,3.2-.8,1-1.5,2.1-2.3,3-2.6,3.2-5.5,6.1-8.7,8.7-1,.8-2,1.6-3,2.3-1,.8-2.1,1.5-3.2,2.2-9.2,6.1-20.3,10.4-33.7,13.1,13.4,2.7,24.5,7.1,33.7,13.1,1.1.7,2.1,1.4,3.2,2.2,1,.8,2.1,1.5,3,2.3,3.2,2.6,6,5.5,8.7,8.7.8,1,1.6,2,2.3,3,.8,1,1.5,2.1,2.2,3.1,6,9.2,10.4,20.4,13.1,33.7,2.7-13.4,7-24.5,13.1-33.7.7-1.1,1.4-2.1,2.2-3.1.8-1,1.5-2.1,2.3-3,2.6-3.2,5.5-6.1,8.7-8.7,1-.8,2-1.6,3-2.3,1-.8,2.1-1.5,3.2-2.2,9.2-6.1,20.3-10.4,33.7-13.1-13.4-2.7-24.5-7.1-33.7-13.1-1.1-.7-2.1-1.4-3.2-2.2Z"/>
        <path class="cls-4" d="M983.8,154.2l32.9,25.6-25.6-32.9c-2.6,2.2-5.1,4.6-7.3,7.3h0Z"/>
        <path class="cls-4" d="M936.2,92l-32.9-25.6,25.6,32.9c2.6-2.2,5.1-4.7,7.3-7.3h0Z"/>
        <path class="cls-4" d="M991.1,99.3l25.6-32.9-32.9,25.6c2.2,2.6,4.7,5.1,7.3,7.3h0Z"/>
        <path class="cls-4" d="M928.9,146.9l-25.6,32.9,32.9-25.6c-2.2-2.6-4.7-5.1-7.3-7.3h0Z"/>
        <path class="cls-1" d="M547.3,302.5h79.8c-9.5-11.5-23.8-18.9-39.9-18.9s-30.4,7.4-39.9,18.9h0Z"/>
        <path class="cls-4" d="M1868.4,231.4c-5.5,0-10.6-1.8-14.7-4.9,0,.6-.2,1.1-.3,1.6,1.1.3,2.1,1.1,2.6,2.2l.5,1.3c.8,2-.2,4.2-2.2,5-.5.2-.9.3-1.4.3-1,0-2-.4-2.7-1.2-2.8,4.5-7.1,8-12.1,10-2,3.4-4.5,6.5-7.7,9.3l30.5-1.1,23.2-20c-5.3,0-10.2-.9-14.7-2.6-.3,0-.7,0-1.1,0h0ZM1859.9,251c-.4.2-.9.3-1.4.3-1.5,0-3-.9-3.6-2.4l-.5-1.3c-.8-2,.2-4.2,2.2-5,2-.8,4.2.2,4.9,2.2l.5,1.3c.8,2-.2,4.2-2.2,5h0Z"/>
        <path id="circulo-2" data-name="circulo" class="cls-6" d="M1851.6,210.1c1.7,7.8,8.6,13.6,16.8,13.6s1.2-.1,1.7-.2c8.7-.9,15.5-8.2,15.5-17.1s-7.7-17.3-17.3-17.3-17.2,7.7-17.2,17.3.2,2.5.4,3.6Z"/>
        <path class="cls-4" d="M156.6,207.5c0,.8-.4,1.6-.9,2.1l10.1,30c1.2-2.5,2.7-5.3,4.7-8.1,4.5-6.4,11.9-14.1,23.8-19.1-.4-.7-.7-1.4-.6-2.3,0-.9.4-1.6.9-2.2-10.9-6.7-17.2-15.3-20.7-22.4-1.6-3.1-2.6-6.1-3.4-8.8l-14.4,28.2c.4.7.7,1.5.7,2.3h0ZM182.3,205.6h1.4c2.1.2,3.7,2.1,3.5,4.2-.1,2-1.8,3.6-3.8,3.6s-.2,0-.3,0h-1.4c-2.1-.3-3.7-2.1-3.5-4.2s2-3.7,4.1-3.5h0ZM167,204.4h1.4c2.1.3,3.7,2.1,3.5,4.2-.1,2-1.8,3.5-3.8,3.5s-.2,0-.3,0h-1.4c-2.1-.3-3.7-2.1-3.5-4.2.2-2.1,2-3.7,4.1-3.5h0Z"/>
        <path id="circulo-3" data-name="circulo" class="cls-6" d="M1835.3,197.6c1.9,0,3.6-.4,5.3-.9,6.9-2.3,11.9-8.7,11.9-16.3s-7.7-17.3-17.3-17.3-17.2,7.7-17.2,17.3.8,5.6,2.1,8.1c2.9,5.4,8.6,9.2,15.2,9.2h0Z"/>
        <path class="cls-4" d="M1301.9,126.2l30.5,30.5c.1,0,.2,0,.3,0,.2,0,.5.1.7.1h26.5l-30.6-30.6h-27.4,0Z"/>
        <path class="cls-4" d="M1866.2,271.4c.7-.7,1.8-1,2.8-1.1l33.7.9c-11.4-10.1-12.6-23.5-11.6-33.1l-24.1,20.8c0,0,.1.1.1.2l.5,1.3c.8,2-.2,4.2-2.2,5-.4.2-.9.3-1.4.3-1.5,0-3-.9-3.6-2.4l-.5-1.3c0,0,0-.1,0-.2l-31.7,1.1c7.2,6.3,15.4,16.9,13.9,32l24-23.3h0Z"/>
        <path class="cls-4" d="M1763.4,207.5c0-.9.2-1.7.7-2.3l-14.4-28.2c-.8,2.7-1.9,5.7-3.4,8.8-3.5,7-9.7,15.7-20.7,22.4.5.6.9,1.3.9,2.2s-.2,1.6-.6,2.3c11.8,5,19.3,12.6,23.8,19.1,2,2.8,3.5,5.6,4.7,8.1l10.1-30c-.5-.6-.9-1.3-.9-2.1ZM1738.2,213.2h-1.4c0,.1-.2.1-.3.1-2,0-3.7-1.5-3.8-3.6-.2-2.1,1.4-3.9,3.5-4.1h1.4c2.2-.2,3.9,1.3,4.1,3.4s-1.4,3.9-3.5,4.1h0ZM1753.6,212.1h-1.4c0,.1-.2.1-.3.1-2,0-3.7-1.5-3.8-3.5-.2-2.1,1.4-3.9,3.5-4.1h1.4c2.1-.3,3.9,1.3,4.1,3.4s-1.4,3.9-3.5,4.1h0Z"/>
        <path class="cls-1" d="M1292.9,302.5h79.8c-9.5-11.5-23.8-18.9-39.9-18.9s-30.4,7.4-39.9,18.9h0Z"/>
        <path id="circulo-4" data-name="circulo" class="cls-6" d="M1833,239.3c4.7-1.1,8.6-4,11-8,1.5-2.6,2.5-5.6,2.5-8.8h0c0-1.6-.3-3-.7-4.4-.3-1.2-.8-2.4-1.3-3.5-1.4-2.7-3.5-5-6-6.6-.1,0-.3-.1-.4-.2-1.8-1.1-3.7-1.8-5.8-2.2-1-.2-2-.3-3-.3s-1.6.1-2.3.2c-.3,0-.6,0-.9,0-5.9,1.1-10.8,5.3-12.9,10.8-.7,1.9-1.2,3.9-1.2,6.1s.5,4.5,1.3,6.5c2.6,6.3,8.8,10.8,16,10.8s2.6-.2,3.8-.4h0Z"/>
        <path class="cls-4" d="M1784.2,209.8h-1.4c0,.1-.2.1-.3.1-2,0-3.7-1.5-3.8-3.6-.2-2.1,1.4-3.9,3.5-4.1h1.4c0-.1.1,0,.2,0l8.3-30.7c-8.2,5.1-20.7,9.7-34.7,3.9l15.2,29.8c.5.9.6,2,.2,3l-10.8,32c13-7.9,26.2-5.1,35.1-1.3l-12.8-29.2c0,0-.2,0-.3,0h0Z"/>
        <path class="cls-4" d="M1812.9,200h1.4c1-.2,2,.2,2.7.8.8-.4,1.6-.9,2.4-1.2-2-1.7-3.7-3.7-5.1-5.9-6.2-4.3-11.9-10-15.5-17.8l-8,29.5,12.3,28.1c.5-1.8,1.2-3.4,1.9-5-.5-1.9-.8-3.9-.8-6,0-6.2,2.3-11.8,6-16.2-.5-.6-.9-1.3-1-2.2-.2-2.1,1.4-3.9,3.5-4.1h0ZM1799.5,208.7h-1.4c0,.1-.2.1-.3.1-2,0-3.7-1.5-3.8-3.5-.2-2.1,1.4-3.9,3.5-4.1h1.4c2.1-.3,3.9,1.3,4.1,3.4s-1.4,3.9-3.5,4.1h0Z"/>
        <path class="cls-6" d="M1548.2,329.2c.9.9,1.8,1.7,2.8,2.5-1.2-18.2-11.8-33.8-27.1-42,.9,2.4,2.1,5.1,3.4,8.1,4.6,9.9,11.5,22.4,20.8,31.4h0Z"/>
        <path class="cls-6" d="M1281.1,335.3c0,9.6,2.7,18.6,7.3,26.3h88.8c4.6-7.7,7.3-16.7,7.3-26.3s-2.4-17.7-6.6-25.1h-90.2c-4.2,7.5-6.6,16-6.6,25.1h0ZM1317.6,331.5h6l-4.2-4.2c-1.5-1.5-1.5-3.9,0-5.4s3.9-1.5,5.4,0l4.2,4.2v-6c0-2.1,1.7-3.8,3.8-3.8s3.8,1.7,3.8,3.8v6l4.2-4.2c1.5-1.5,3.9-1.5,5.4,0s1.5,3.9,0,5.4l-4.2,4.2h6c2.1,0,3.8,1.7,3.8,3.8s-1.7,3.8-3.8,3.8h-6l4.2,4.2c1.5,1.5,1.5,3.9,0,5.4s-1.7,1.1-2.7,1.1-2-.4-2.7-1.1l-4.2-4.2v6c0,2.1-1.7,3.8-3.8,3.8s-3.8-1.7-3.8-3.8v-6l-4.2,4.2c-.8.8-1.7,1.1-2.7,1.1s-2-.4-2.7-1.1c-1.5-1.5-1.5-3.9,0-5.4l4.2-4.2h-6c-2.1,0-3.8-1.7-3.8-3.8s1.7-3.8,3.8-3.8h0Z"/>
        <path class="cls-6" d="M1524.8,345.7c-3.7-3.6-8-7.2-13.3-11-22.7-16.2-26.6-39.2-27.2-48.8-5.9,1.8-11.3,4.7-16.1,8.3,0,.9-.2,2.1-.2,3.7-.2,10.8,2.4,35.9,29.4,54.5,1.2.9,2.3,1.8,3.5,2.6,21.7,16.2,30.9,34.5,34.8,46.2,2.5-6.5,4.8-13.2,6.8-19.8,0-.8.2-2.5,0-4.9-.7-6.4-4.1-17.7-17.7-30.9h0Z"/>
        <path class="cls-1" d="M1514.5,378.5c-5.3-6.6-12.2-13.4-21.3-19.7-27.1-18.8-32.1-43.5-32.6-57.2-7.8,9.1-12.6,20.9-12.6,33.8s.5,9.5,1.4,15.4c9.2,6.3,58.6,41.7,70.1,82.4,4.1-5.6,7.9-12.5,11.5-20.1-.3-1.9-1.1-6-3.2-11.6-2.4-6.4-6.4-14.4-13.2-22.9h0Z"/>
        <path class="cls-4" d="M1871.2,279.6c-.5.2-.9.3-1.4.3s-.7,0-1.1-.2l-22.7,22.1c.1,0,.2,0,.3,0,2.7,0,5.8.2,9.1.7,7.8,1.3,17.8,4.7,27.4,13.2.4-.7,1-1.2,1.8-1.5s1.6-.3,2.4,0c1.3-12.8,6.4-22.1,11.2-28.3,2.1-2.7,4.3-5,6.3-6.8l-31.7-.8c-.4.6-1,1.2-1.8,1.5h0ZM1884,302l.5,1.3c.8,2-.2,4.2-2.2,5-.5.2-.9.3-1.4.3-1.5,0-3-.9-3.6-2.4l-.5-1.3c-.8-2,.2-4.2,2.2-5,2-.8,4.2.2,5,2.2h0ZM1878.4,287.6l.5,1.3c.8,2-.2,4.2-2.2,5-.5.2-.9.3-1.4.3-1.5,0-3-.9-3.6-2.4l-.5-1.3c-.8-2,.2-4.2,2.2-5,2-.8,4.2.2,5,2.2h0Z"/>
        <path class="cls-1" d="M1492.4,289c1.2,9.2,5.7,25.5,21.8,38,.6.5,1.2,1,1.9,1.5,18.5,13.2,27.2,25.8,31.2,35.7,1.9-8.5,3.2-16.4,3.7-22.8-21.9-14.8-33.8-47.1-36.6-55.5-4.7-1.4-9.7-2.2-14.8-2.2s-5.1.3-7.5.6c0,1.2.2,2.8.4,4.7h0Z"/>
        <path class="cls-1" d="M1332.8,387c15.5,0,29.4-6.9,38.9-17.7h-77.7c9.5,10.8,23.4,17.7,38.9,17.7Z"/>
        <path class="cls-6" d="M1263.7,126.2l30.6,30.6h27.4l-30.6-30.6h-27.4Z"/>
        <path class="cls-1" d="M1641.3,327.2l-20.5-.9,17.1,11.3c1.5,1,2.1,2.9,1.5,4.5l-7.2,19.2,16-12.8c1.4-1.1,3.4-1.1,4.8,0l16,12.8-7.2-19.2c-.6-1.7,0-3.6,1.5-4.5l17.1-11.3-20.5.9c-1.7.2-3.4-1.1-3.9-2.8l-5.4-19.8-5.4,19.8c-.5,1.7-2.1,3-3.9,2.8h0Z"/>
        <path class="cls-6" d="M1455.1,364.5c-1.4-1.1-2.6-2-3.8-2.9,7.8,36.2,27.6,85.5,48.2,85.5s9.3-2.5,13.7-6.8c-.3-1.8-.8-3.7-1.3-5.5-8.6-29.5-39.7-57-56.8-70.3h0Z"/>
        <path class="cls-1" d="M426.9,358.8c-9.1,6.3-16,13-21.2,19.5-7,8.7-11.1,16.9-13.4,23.3-2,5.5-2.8,9.5-3.1,11.4,3.5,7.6,7.4,14.5,11.5,20.1,11.5-40.8,60.9-76.1,70.1-82.4.9-5.9,1.4-11.2,1.4-15.4,0-12.9-4.8-24.7-12.6-33.8-.5,13.7-5.5,38.5-32.6,57.2h0Z"/>
        <path class="cls-6" d="M552.4,126.2l-30.6,30.6h27.4l30.6-30.6h-27.4Z"/>
        <path class="cls-4" d="M53.8,271.4l24,23.3c-1.4-15,6.7-25.6,13.9-32l-31.7-1.1c0,0,0,.1,0,.2l-.5,1.3c-.6,1.5-2,2.4-3.6,2.4s-.9,0-1.4-.3c-2-.8-2.9-3-2.2-5l.5-1.3c0,0,0-.1.2-.2l-24.1-20.8c1,9.6-.2,23-11.6,33.1l33.7-.9c1,0,2,.4,2.8,1.1h0Z"/>
        <path class="cls-6" d="M408.4,334.7c-5.3,3.8-9.6,7.5-13.3,11-13.6,13.2-17,24.5-17.7,30.9-.3,2.4-.2,4.1,0,4.9,2,6.6,4.3,13.3,6.8,19.8,3.9-11.8,13.1-30,34.8-46.2,1.2-.9,2.3-1.8,3.5-2.6,26.9-18.6,29.6-43.8,29.4-54.5,0-1.6-.1-2.8-.2-3.7-4.8-3.7-10.2-6.5-16.1-8.3-.6,9.6-4.4,32.5-27.1,48.8h0Z"/>
        <path class="cls-4" d="M89.5,255c-3.2-2.8-5.7-6-7.7-9.3-5-1.9-9.2-5.5-12.1-10-.7.7-1.7,1.2-2.7,1.2s-.9,0-1.4-.3c-2-.8-2.9-3-2.2-5l.5-1.3c.5-1.2,1.5-1.9,2.6-2.2-.1-.5-.2-1.1-.3-1.6-4.1,3-9.2,4.9-14.7,4.9s-.7,0-1.1,0c-4.5,1.6-9.5,2.6-14.7,2.6l23.2,20,30.5,1.1h0ZM57.9,246l.5-1.3c.8-2,3-2.9,5-2.2,2,.8,2.9,3,2.2,5l-.5,1.3c-.6,1.5-2,2.4-3.6,2.4s-.9,0-1.4-.3c-2-.8-2.9-3-2.2-5h0Z"/>
        <path class="cls-1" d="M405.7,285.8c-2.8,8.4-14.7,40.7-36.6,55.5.5,6.5,1.8,14.3,3.7,22.8,4-9.8,12.7-22.4,31.2-35.7.7-.5,1.3-1,1.9-1.5,16.1-12.5,20.6-28.8,21.8-38,.2-1.9.4-3.5.4-4.7-2.5-.4-5-.6-7.5-.6-5.1,0-10.1.8-14.8,2.2h0Z"/>
        <path class="cls-6" d="M475.9,126.2l-30.6,30.6h27.4l30.6-30.6h-27.4Z"/>
        <path class="cls-4" d="M514.1,126.2l-30.6,30.6h27.4l30.6-30.6h-27.4Z"/>
        <path class="cls-4" d="M103,200.8c.7-.6,1.7-1,2.7-.9h1.4c2.1.3,3.7,2.1,3.5,4.2,0,.9-.4,1.6-1,2.2,3.7,4.4,6,10,6,16.2s-.3,4.1-.8,6c.7,1.6,1.3,3.3,1.9,5l12.3-28.1-8-29.5c-3.6,7.8-9.3,13.6-15.5,17.8-1.4,2.2-3.1,4.2-5.1,5.9.8.4,1.7.8,2.4,1.2h0ZM121,201h1.4c2.1.3,3.7,2.1,3.5,4.2-.2,2-1.8,3.5-3.8,3.5s-.2,0-.3,0h-1.4c-2.1-.3-3.7-2.1-3.5-4.2.2-2.1,2-3.7,4.1-3.5h0Z"/>
        <path class="cls-6" d="M535.6,335.3c0,9.6,2.7,18.6,7.3,26.3h88.8c4.6-7.7,7.3-16.7,7.3-26.3s-2.4-17.7-6.6-25.1h-90.2c-4.2,7.5-6.6,16-6.6,25.1h0ZM572,331.5h6l-4.2-4.2c-1.5-1.5-1.5-3.9,0-5.4s3.9-1.5,5.4,0l4.2,4.2v-6c0-2.1,1.7-3.8,3.8-3.8s3.8,1.7,3.8,3.8v6l4.2-4.2c1.5-1.5,3.9-1.5,5.4,0s1.5,3.9,0,5.4l-4.2,4.2h6c2.1,0,3.8,1.7,3.8,3.8s-1.7,3.8-3.8,3.8h-6l4.2,4.2c1.5,1.5,1.5,3.9,0,5.4s-1.7,1.1-2.7,1.1-2-.4-2.7-1.1l-4.2-4.2v6c0,2.1-1.7,3.8-3.8,3.8s-3.8-1.7-3.8-3.8v-6l-4.2,4.2c-.8.8-1.7,1.1-2.7,1.1s-2-.4-2.7-1.1c-1.5-1.5-1.5-3.9,0-5.4l4.2-4.2h-6c-2.1,0-3.8-1.7-3.8-3.8s1.7-3.8,3.8-3.8h0Z"/>
        <path class="cls-4" d="M136.4,202.2h1.4c2.1.2,3.7,2.1,3.5,4.2-.1,2-1.8,3.6-3.8,3.6s-.2,0-.3,0h-1.4c-.1-.1-.2-.2-.3-.2l-12.8,29.1c4.7-2,10.7-3.8,17.1-3.8s11.8,1.4,17.9,5.1l-10.7-32c-.3-1-.2-2,.2-3l15.2-29.8c-13.9,5.8-26.5,1.1-34.7-3.9l8.3,30.7c0,0,.1,0,.2,0h0Z"/>
        <path class="cls-1" d="M587.2,387c15.5,0,29.4-6.9,38.9-17.7h-77.7c9.5,10.8,23.4,17.7,38.9,17.7Z"/>
        <path id="circulo-5" data-name="circulo" class="cls-6" d="M79.4,196.7c1.7.5,3.4.9,5.3.9,6.5,0,12.1-3.6,15-8.9,1.4-2.5,2.2-5.3,2.2-8.3,0-9.5-7.7-17.3-17.2-17.3s-17.3,7.7-17.3,17.3,5.1,14.1,12,16.4Z"/>
        <path id="circulo-6" data-name="circulo" class="cls-6" d="M49.8,223.6c.6,0,1.1.2,1.7.2,8.3,0,15.2-5.8,16.8-13.6.3-1.2.4-2.4.4-3.6,0-9.5-7.7-17.3-17.2-17.3s-17.3,7.7-17.3,17.3,6.8,16.2,15.5,17.1Z"/>
        <path class="cls-4" d="M21.8,285.7c4.8,6.2,9.9,15.5,11.2,28.3.8-.2,1.6-.2,2.3,0,.8.3,1.4.9,1.8,1.6,9.6-8.5,19.7-11.9,27.5-13.2,3.4-.6,6.6-.7,9.4-.7l-22.7-22.1c-.3.1-.7.2-1.1.2s-.9,0-1.4-.3c-.8-.3-1.3-.9-1.8-1.5l-31.7.8c2.1,1.9,4.2,4.1,6.4,6.8h0ZM41.1,288.9l.5-1.3c.8-2,3-2.9,5-2.2,2,.8,2.9,3,2.2,5l-.5,1.3c-.6,1.5-2,2.4-3.6,2.4s-.9,0-1.4-.3c-2-.8-2.9-3-2.2-5ZM35.5,303.3l.5-1.3c.8-2,3-2.9,5-2.2,2,.8,2.9,3,2.2,5l-.5,1.3c-.6,1.5-2,2.4-3.6,2.4s-.9,0-1.4-.3c-2-.8-2.9-3-2.2-5h0Z"/>
        <path class="cls-6" d="M1340.2,126.2l30.6,30.6h27.4l-30.6-30.6h-27.4Z"/>
        <path class="cls-4" d="M1378.4,126.2l30.6,30.6h27.4l-30.6-30.6h-27.4,0Z"/>
        <path class="cls-6" d="M408.1,434.9c-.5,1.8-1,3.6-1.3,5.5,4.4,4.3,9,6.8,13.7,6.8,20.6,0,40.4-49.3,48.2-85.5-1.2.9-2.4,1.9-3.8,2.9-17.1,13.3-48.2,40.8-56.8,70.3h0Z"/>
        <path class="cls-6" d="M1416.7,126.2l30.6,30.6h27.4l-30.6-30.6h-27.4Z"/>
        <path class="cls-1" d="M263.9,324.4c-.5,1.7-2.1,3-3.9,2.8l-20.5-.9,17.1,11.3c1.5,1,2.1,2.9,1.5,4.5l-7.2,19.2,16-12.8c1.4-1.1,3.4-1.1,4.8,0l16,12.8-7.2-19.2c-.6-1.7,0-3.6,1.5-4.5l17.1-11.3-20.5.9c-1.8.2-3.4-1.1-3.9-2.8l-5.4-19.8-5.4,19.8h0Z"/>
        <path class="cls-6" d="M392.6,297.8c1.4-3,2.5-5.7,3.4-8-15.2,8.2-25.8,23.8-27.1,42,1-.8,1.9-1.7,2.8-2.5,9.3-9,16.3-21.5,20.8-31.4h0Z"/>
        <g class="cls-7">
          <g class="cls-3">
            <path class="cls-5" d="M0,8.5v446.3h1920V8.5H0Z"/>
          </g>
        </g>
      </g>
    </g>
  </g>
</svg>