<?xml version="1.0" encoding="UTF-8"?>
<svg xmlns="http://www.w3.org/2000/svg" version="1.1" xmlns:xlink="http://www.w3.org/1999/xlink" viewBox="0 0 325 496">
  <defs>
    <style>
      .cls-1 {
        fill: #e3a6a7;
      }

      .cls-2 {
        fill: #fff;
      }

      .cls-3 {
        fill: none;
      }

      .cls-4 {
        clip-path: url(#clippath-1);
      }

      .cls-5 {
        fill: #166671;
      }

      .cls-6 {
        fill: url(#Degradado_sin_nombre);
      }

      .cls-7 {
        fill: #a00a37;
      }

      .cls-8 {
        clip-path: url(#clippath);
      }
    </style>
    <clipPath id="clippath">
      <rect class="cls-3" width="325" height="496"/>
    </clipPath>
    <clipPath id="clippath-1">
      <path class="cls-3" d="M68.5,247c.8.8.8,2,0,2.8l-.9.9c-.4.4-.9.6-1.4.6s-1-.2-1.4-.6c-.8-.8-.8-2,0-2.8l.9-.9c.8-.8,2-.8,2.8,0h0ZM50.4,201.5l1.2-.5c1-.4,1.5-1.6,1.1-2.6-.4-1-1.6-1.5-2.6-1.1l-1.2.5c-1,.4-1.5,1.6-1.1,2.6.3.8,1,1.2,1.8,1.2s.5,0,.8-.1h0ZM104.1,137.6c.2,0,.4,0,.6,0,.8,0,1.6-.5,1.9-1.4.1-.4.2-.8.4-1.2.3-1-.2-2.1-1.2-2.5-1-.3-2.2.2-2.5,1.2-.1.4-.3.8-.4,1.3-.3,1,.3,2.1,1.3,2.5h0ZM75.7,237l-.9.9c-.8.8-.8,2,0,2.8.4.4.9.6,1.4.6s1-.2,1.4-.6l.9-.9c.8-.8.8-2,0-2.8-.8-.8-2-.8-2.8,0ZM89.3,203.7c-.6-.9-1.8-1.1-2.7-.5l-37.2,25.7c-.9.6-1.1,1.8-.5,2.7.4.6,1,.9,1.6.9s.8-.1,1.1-.4l37.2-25.7c.9-.6,1.1-1.8.5-2.7h0ZM322.1,309c0,4.8-3.5,8.9-8,9.8v139.3c0,20.7-16.9,37.5-37.6,37.5H48.5c-20.7,0-37.6-16.8-37.6-37.5v-139.3c-4.6-.9-8-5-8-9.8s4.5-10,10-10,10,4.5,10,10-3.5,8.9-8,9.8v139.3c0,18.5,15.1,33.6,33.6,33.6h35.8c-1.8-2-2.8-4.7-2.8-7.5v-200.4c-27-16.7-48.2-41.5-60.6-71.5-15.7-37.8-15.7-79.5,0-117.2C36.4,57.3,65.9,27.9,103.8,12.2c37.9-15.7,79.6-15.7,117.4,0s67.2,45.1,82.9,82.9c15.7,37.8,15.7,79.5,0,117.2-12.7,30.7-34.4,55-60.7,71.3v200.5c0,2.9-1.1,5.5-2.9,7.5h35.8c18.5,0,33.6-15.1,33.6-33.6v-139.3c-4.6-.9-8-5-8-9.8s4.5-10,10-10,10,4.5,10,10h0ZM12.9,315c.7,0,1.4-.1,2-.3,2.4-.8,4.1-3.1,4.1-5.7s-1.7-4.9-4.1-5.7c-.6-.2-1.3-.3-2-.3s-1.4.1-2,.3c-2.4.8-4.1,3.1-4.1,5.7s1.7,4.9,4.1,5.7c.6.2,1.3.3,2,.3ZM87.3,218.3c.4-7,3.1-13.5,7.6-18.7-9-13.1-14.2-28.9-14.2-45.9,0-45,36.7-81.7,81.8-81.7s81.8,36.6,81.8,81.7-5.2,32.8-14.2,45.9c4.4,5.2,7.1,11.8,7.6,18.7h3.9c1.1,0,2,.9,2,2v58.7c24.7-15.9,45-39.1,57-68.2,15.3-36.8,15.2-77.3,0-114.2-15.3-36.9-44-65.6-80.8-80.8-18.4-7.6-37.7-11.4-57.1-11.4s-38.8,3.8-57.3,11.5C68.4,31.1,39.7,59.8,24.4,96.5c-15.2,36.8-15.2,77.3,0,114.2,11.8,28.5,31.6,52.1,57,68.3v-58.8c0-1.1.9-2,2-2h3.9ZM240.3,153.7c0-42.9-34.9-77.7-77.8-77.7s-77.8,34.9-77.8,77.7,4.8,30.7,13.1,43c1.4-1.3,2.8-2.4,4.4-3.4,2.9-1.8,5.8-3.5,8.8-5.1,0-.6.3-1.1.8-1.5.7-.5,1.6-.5,2.2,0,34.6-16.7,76-14.5,108.9,6.6,1.6,1,3.1,2.2,4.4,3.4,8.2-12.3,13.1-27.1,13.1-43h0ZM100.7,428.4h-15.3v55.7c0,4.2,3.4,7.5,7.6,7.5h7.7v-63.2ZM120,428.4h-15.4v63.2h15.4v-63.2ZM139.5,428.4h-15.6v63.2h15.6v-63.2ZM159.1,428.4h-15.7v63.2h15.7v-63.2ZM178.4,428.4h-15.3v63.2h15.3v-63.2ZM199,428.4h-16.8v63.2h16.8v-63.2ZM219.3,428.4h-16.3v63.2h16.3v-63.2ZM239.6,428.4h-16.4v63.2h8.8c4.2,0,7.6-3.4,7.6-7.5v-55.7ZM239.6,324.4h-83.5c-3.3,8.5-7.4,16.1-11.7,21.4l-2.5,11.4c4.2,0,7.9,1.8,10.6,4.6.4-.5.9-.8,1.6-.8h1.3c1.1,0,2,.9,2,2s-.9,2-2,2h-.6c1.1,2,1.7,4.3,1.7,6.7s0,1.8-.3,2.7c1.6-.6,3.2-.9,4.9-.9,8,0,14.5,6.5,14.5,14.5s-6.5,14.5-14.5,14.5-6.8-1.3-9.3-3.4c-1.2,6.8-7.1,12-14.3,12s-4.9-.6-6.9-1.8l-2.7,12.2c-.2.9-1,1.5-1.9,1.5s-.3,0-.4,0c-1.1-.2-1.7-1.3-1.5-2.3l3-14c-.1-.1-.2-.3-.4-.4h-1c-1.1,0-2-.9-2-2s.3-1.1.7-1.5c-.9-1.9-1.5-4-1.5-6.3,0-6.2,3.8-11.4,9.3-13.5v-.5c-1.8-1.7-3.3-3.8-4.1-6.3-4.2-2.6-10.3-6.5-16.5-11.4-.9,0-1.7-.6-1.9-1.5-10-8-20.3-18.1-24.4-28.7v6.8c.8.3,1.3,1,1.3,1.8s-.5,1.6-1.3,1.8v15.9c.8.3,1.3,1,1.3,1.8s-.5,1.6-1.3,1.8v16.6c.8.3,1.3,1,1.3,1.8s-.5,1.6-1.3,1.8v17.4c.8.3,1.3,1,1.3,1.8s-.5,1.6-1.3,1.8v18.3h154.2v-18.2h-.7c-1.1,0-2-.9-2-2s.9-2,2-2h.7v-17.2h-.7c-1.1,0-2-.9-2-2s.9-2,2-2h.7v-16.3h-.7c-1.1,0-2-.9-2-2s.9-2,2-2h.7v-15.7h-.7c-1.1,0-2-.9-2-2s.9-2,2-2h.7v-17h0ZM148.7,305.1c0,.3,0,.7,0,1-.1,5-.3,9.8-.6,14.3-.1,1.3-.2,2.6-.3,3.9-.4,4.1-.8,7.9-1.4,11.5,2-3.5,3.8-7.4,5.5-11.5.5-1.3,1-2.6,1.5-3.9,1.6-4.5,3-9.1,4.1-13.8.3-1.3.6-2.6.8-3.9,2.5-12.6,2.5-24.5-1.3-31-2-3.4-4.8-5.1-8.7-5.1s-1.8,0-2.8.3c-.6.1-1.2.2-1.8.4-1.6.4-3,.9-4.3,1.5-3.7,1.7-6.4,4.4-8.2,8-3,6-3.2,13.9-2,22.2.2,1.4.4,2.8.7,4.2,1.1,5.8,2.8,11.8,4.7,17.2.5,1.3.9,2.6,1.4,3.9,2.1,5.8,4.3,10.8,5.9,14.4.8-4.4,1.4-9.2,1.9-14.4.1-1.3.2-2.6.3-3.9.3-4.6.6-9.5.7-14.7,0-.2,0-.5,0-.7,0-1.1.9-1.9,2-1.9h0c1.1,0,1.9.9,1.9,2h0ZM152.5,371.6c0-5.8-4.8-10.6-10.6-10.6s0,0-.1,0c-.2,0-.5,0-.7,0-.9,0-1.8.3-2.6.5-.6.2-1.2.5-1.7.8-.1,0-.2.2-.4.2-.6.4-1.2.9-1.8,1.4-.7.7-1.3,1.4-1.8,2.2-.3.5-.6,1-.8,1.6-.5,1.2-.7,2.5-.7,3.9s0,1.4.2,2.1c.2,1,.6,2,1.1,2.9.2.5.5.9.8,1.3.6.8,1.2,1.4,2,2,.4.3.9.7,1.4.9.6.3,1.2.6,1.9.8,1,.3,2.1.5,3.2.5s.6,0,1,0c5.4-.5,9.6-5,9.6-10.5h0ZM150.5,387.9c0,5.8,4.7,10.6,10.6,10.6s10.6-4.7,10.6-10.6-.2-2.4-.6-3.5c-.4-1.2-1-2.2-1.8-3.1-1.9-2.4-4.9-3.9-8.2-3.9-5.8,0-10.6,4.7-10.6,10.6h0ZM137.6,386c-.6,0-1.3,0-1.9.2-1.6.3-3.2,1-4.4,1.9-2.6,1.9-4.2,5-4.2,8.4s.5,3.6,1.3,5.1c.8,1.4,1.9,2.7,3.2,3.6,1.7,1.2,3.8,1.9,6,1.9,5.8,0,10.6-4.7,10.6-10.6s-4.7-10.6-10.6-10.6h0ZM146.8,385.4c0,0,0-.1,0-.2,0,0-.1,0-.2,0,0,0,0,0,.1.1h0ZM131.7,324.4h-7.5c2,3.7,3.8,7.7,5.5,12.2,2.8,7.2,4.8,14.8,6.1,21.9.6-.3,1.3-.6,2-.8l2.7-12.4h-.6c-1.1,0-2-.9-2-2s.3-1.3.9-1.6c-1.8-3.8-4.6-10-7.1-17.3ZM119.7,324.4c-.8-1.4-1.6-2.7-2.4-3.9-3.5-5.3-7.3-9.3-11.2-11.2-1.6-.8-3.1-1.1-4.6-1.1-2.6,0-5.1,1.2-7.6,3.5-2.9,2.8-4.8,5.7-5.7,8.8-.4,1.3-.6,2.6-.7,3.9,0,1.1,0,2.3.1,3.4,1.6,11.8,13.8,24,25.5,33.2.6.5,1.1.9,1.7,1.3,4.6,3.5,9,6.5,12.6,8.8,0-1,.2-2,.4-3-.6-1-1.2-2.1-1.8-3.3-.6-1-1.2-2-1.8-3.1-2.9-4.9-6.4-10.5-10.4-16.7-.6-.8-1.1-1.7-1.7-2.6-.2-.4-.3-.7-.3-1.1,0-.6.3-1.2.9-1.6.9-.6,2.1-.3,2.7.6,5.9,9,10.7,16.8,14.4,23.3.7-1,1.5-1.9,2.4-2.7-.9-5.2-2.2-10.7-3.8-16.1-.4-1.2-.7-2.3-1.2-3.5-2.1-6.1-4.7-11.9-7.5-17h0ZM239.6,222.2h-13.7c-1.1,0-2-.9-2-2s.6-1.6,1.3-1.8c.2,0,.4-.1.6-.1h7.8c-.4-5.7-2.5-11-6-15.4-.8-1-1.7-2-2.7-3-1.3-1.2-2.7-2.4-4.3-3.4-2.8-1.8-5.7-3.4-8.6-4.9-1.2-.6-2.4-1.2-3.6-1.8-29.4-13.9-63.9-13.7-93.2.5-.6.3-1.2.6-1.9.9-3.1,1.6-6.2,3.3-9.2,5.2-1.6,1-3,2.1-4.3,3.4-1,.9-1.9,1.9-2.7,3-3.5,4.4-5.6,9.8-6,15.4h109.6c1,0,1.8.8,1.9,1.7,0,0,0,.1,0,.2,0,1.1-.9,2-2,2h-115.5v94.5c1.3-2.8,3.2-5.4,5.8-7.9,5.1-4.8,10.8-5.9,16.6-3.1,4.8,2.3,9.7,7.5,14.1,14.7h8.4c-.1-.3-.2-.7-.4-1.1-2-6.2-3.4-11.9-4.3-17.1-.2-1.5-.4-2.8-.6-4.2-1.1-9.5-.3-17.1,2.6-23,2.6-5.3,6.8-8.9,12.6-10.9,1.3-.5,2.7-.8,4.2-1.1.1,0,.2,0,.3,0,6.9-1.2,12.3,1.1,15.6,6.7.4.7.8,1.5,1.1,2.3.6,1.5,1.1,3.1,1.5,4.8.6,2.8.9,6,1,9.5,0,1.3,0,2.7,0,4.1-.2,3.8-.7,8-1.5,12.3-.2,1.3-.5,2.6-.8,3.9,0,.3-.1.5-.2.8-1,4.4-2.3,8.7-3.8,12.9h82v-98.2h0ZM318.1,309c0-2.6-1.7-4.9-4.1-5.7-.6-.2-1.3-.3-2-.3s-1.4.1-2,.3c-2.4.8-4.1,3.1-4.1,5.7s1.7,4.9,4.1,5.7c.6.2,1.3.3,2,.3s1.4-.1,2-.3c2.4-.8,4.1-3.1,4.1-5.7ZM54.5,151.1c-1.1,0-2,.9-2,2s.9,2,2,2h1.3c1.1,0,2-.9,2-2s-.9-2-2-2h-1.3ZM68.7,151.1c-1.1,0-2,.9-2,2s.9,2,2,2h1.3c1.1,0,2-.9,2-2s-.9-2-2-2h-1.3ZM276.1,362.9l-6.4,6.4,6.4,6.4,6.4-6.4-6.4-6.4ZM51.1,430.7l6.4-6.4-6.4-6.4-6.4,6.4,6.4,6.4ZM57.5,309.1l-6.4-6.4-6.4,6.4,6.4,6.4,6.4-6.4ZM28.1,130.7l44.4,8.1c.1,0,.2,0,.3,0,.9,0,1.8-.7,1.9-1.6.2-1.1-.5-2.1-1.6-2.3l-44.5-8.1c-1.1-.2-2.1.5-2.3,1.6-.2,1.1.5,2.1,1.6,2.3h0ZM37.1,202.8l-1.2.5c-1,.4-1.5,1.6-1.1,2.6.3.8,1,1.2,1.8,1.2s.5,0,.8-.1l1.2-.5c1-.4,1.5-1.6,1.1-2.6-.4-1-1.6-1.5-2.6-1.1h0ZM37.3,103.4l1.2.5c.2,0,.5.1.8.1.8,0,1.5-.5,1.8-1.2.4-1,0-2.2-1.1-2.6l-1.2-.5c-1-.4-2.2,0-2.6,1.1-.4,1,0,2.1,1.1,2.6h0ZM51.8,105.2c-1-.4-2.2,0-2.6,1.1-.4,1,0,2.2,1.1,2.6l1.2.5c.2.1.5.2.8.2.8,0,1.5-.5,1.8-1.2.4-1,0-2.2-1.1-2.6l-1.2-.5h0ZM75.4,171.9c-.2-1.1-1.3-1.7-2.3-1.5l-44.2,9.5c-1.1.2-1.7,1.3-1.5,2.3.2.9,1,1.6,1.9,1.6s.3,0,.4,0l44.2-9.5c1.1-.2,1.7-1.3,1.5-2.3h0ZM63.2,192l-1.2.5c-1,.4-1.5,1.6-1.1,2.6.3.8,1,1.2,1.8,1.2s.5,0,.8-.2l1.2-.5c1-.4,1.5-1.6,1.1-2.6-.4-1-1.6-1.5-2.6-1.1ZM154.1,341.4c-1.1,0-2,.9-2,2s.9,2,2,2h1.3c1.1,0,2-.9,2-2s-.9-2-2-2h-1.3ZM102.1,151.5c1,0,1.9-.8,2-1.8,0-.4,0-.8,0-1.2,0-1.1-.7-2-1.8-2.1-1.1,0-2,.7-2.1,1.8,0,.4,0,.9,0,1.3,0,1.1.7,2,1.8,2.1h.1ZM29.5,153.1c0-1.1-.9-2-2-2h-1.3c-1.1,0-2,.9-2,2s.9,2,2,2h1.3c1.1,0,2-.9,2-2ZM51.1,375.7l6.4-6.4-6.4-6.4-6.4,6.4,6.4,6.4ZM40.4,151.1c-1.1,0-2,.9-2,2s.9,2,2,2h1.3c1.1,0,2-.9,2-2s-.9-2-2-2h-1.3ZM64.9,110.6c-1-.4-2.2,0-2.6,1.1s0,2.1,1.1,2.6l1.2.5c.2,0,.5.1.8.1.8,0,1.5-.5,1.8-1.2.4-1,0-2.2-1.1-2.6l-1.2-.5ZM169.5,402.3h-1.3c-1.1,0-2,.9-2,2s.9,2,2,2h1.3c1.1,0,2-.9,2-2s-.9-2-2-2ZM168.2,364.9h1.3c1.1,0,2-.9,2-2s-.9-2-2-2h-1.3c-1.1,0-2,.9-2,2s.9,2,2,2ZM224.7,345.3h1.3c1.1,0,2-.9,2-2s-.9-2-2-2h-1.3c-1.1,0-2,.9-2,2s.9,2,2,2ZM182.4,345.3h1.3c1.1,0,2-.9,2-2s-.9-2-2-2h-1.3c-1.1,0-2,.9-2,2s.9,2,2,2ZM113,402.3h-1.3c-1.1,0-2,.9-2,2s.9,2,2,2h1.3c1.1,0,2-.9,2-2s-.9-2-2-2ZM98.8,361h-1.3c-1.1,0-2,.9-2,2s.9,2,2,2h1.3c1.1,0,2-.9,2-2s-.9-2-2-2ZM98.8,381.2h-1.3c-1.1,0-2,.9-2,2s.9,2,2,2h1.3c1.1,0,2-.9,2-2s-.9-2-2-2ZM224.7,364.9h1.3c1.1,0,2-.9,2-2s-.9-2-2-2h-1.3c-1.1,0-2,.9-2,2s.9,2,2,2ZM113,381.2h-1.3c-1.1,0-2,.9-2,2s.9,2,2,2h1.3c1.1,0,2-.9,2-2s-.9-2-2-2ZM210.6,345.3h1.3c1.1,0,2-.9,2-2s-.9-2-2-2h-1.3c-1.1,0-2,.9-2,2s.9,2,2,2ZM196.5,385.2h1.3c1.1,0,2-.9,2-2s-.9-2-2-2h-1.3c-1.1,0-2,.9-2,2s.9,2,2,2ZM210.6,406.3h1.3c1.1,0,2-.9,2-2s-.9-2-2-2h-1.3c-1.1,0-2,.9-2,2s.9,2,2,2ZM196.5,406.3h1.3c1.1,0,2-.9,2-2s-.9-2-2-2h-1.3c-1.1,0-2,.9-2,2s.9,2,2,2ZM196.5,364.9h1.3c1.1,0,2-.9,2-2s-.9-2-2-2h-1.3c-1.1,0-2,.9-2,2s.9,2,2,2ZM210.6,364.9h1.3c1.1,0,2-.9,2-2s-.9-2-2-2h-1.3c-1.1,0-2,.9-2,2s.9,2,2,2ZM210.6,385.2h1.3c1.1,0,2-.9,2-2s-.9-2-2-2h-1.3c-1.1,0-2,.9-2,2s.9,2,2,2ZM98.8,402.3h-1.3c-1.1,0-2,.9-2,2s.9,2,2,2h1.3c1.1,0,2-.9,2-2s-.9-2-2-2ZM224.7,406.3h1.3c1.1,0,2-.9,2-2s-.9-2-2-2h-1.3c-1.1,0-2,.9-2,2s.9,2,2,2ZM224.7,385.2h1.3c1.1,0,2-.9,2-2s-.9-2-2-2h-1.3c-1.1,0-2,.9-2,2s.9,2,2,2ZM155.4,402.3h-1.3c-1.1,0-2,.9-2,2s.9,2,2,2h1.3c1.1,0,2-.9,2-2s-.9-2-2-2ZM118.5,109.3c-.3.3-.6.6-.9.9-.8.8-.7,2,0,2.8.4.4.9.5,1.4.5s1-.2,1.4-.6c.3-.3.6-.6.9-.9.8-.8.8-2,0-2.8-.8-.8-2-.8-2.8,0h0ZM112.1,120.1c-.9-.6-2.1-.3-2.7.6-.2.4-.5.8-.7,1.1-.6.9-.2,2.1.7,2.7.3.2.7.3,1,.3.7,0,1.3-.3,1.7-1,.2-.4.4-.7.7-1.1.6-.9.3-2.1-.6-2.7h0ZM125.8,385.2h1.3c1.1,0,2-.9,2-2s-.9-2-2-2h-1.3c-1.1,0-2,.9-2,2s.9,2,2,2ZM182.7,138.9c0,10.5-8,19.1-18.2,20.1v14.6c0,1.1-.9,2-2,2s-2-.9-2-2v-14.6c-10.2-1-18.2-9.6-18.2-20.1s1.9-3.9,3.9-5.2c3.2-2.1,7.9-5.4,11.4-16,3.2-9.8,2.9-18.2,2.9-18.3,0-.5.2-1.1.5-1.4.4-.4.9-.6,1.4-.6,12,0,20.2,31.2,20.2,41.6h0ZM178.7,138.9c0-10.3-7.1-33.4-14.3-37.1-.1,3.4-.7,9.9-3.1,17.1-3.9,11.9-9.6,15.7-12.9,18-1.5,1-2.2,1.5-2.2,2,0,8.3,6.3,15.1,14.3,16.1v-14.2c0-1.1.9-2,2-2s2,.9,2,2v14.2c8-1,14.3-7.8,14.3-16.1h0ZM108,175.2c-.4-1-1.5-1.5-2.6-1.1-1,.4-1.5,1.6-1.1,2.6.2.4.3.8.5,1.2.3.8,1.1,1.2,1.8,1.2s.5,0,.8-.2c1-.4,1.5-1.6,1.1-2.6-.2-.4-.3-.8-.5-1.1h0ZM168.2,345.3h1.3c1.1,0,2-.9,2-2s-.9-2-2-2h-1.3c-1.1,0-2,.9-2,2s.9,2,2,2ZM196.5,345.3h1.3c1.1,0,2-.9,2-2s-.9-2-2-2h-1.3c-1.1,0-2,.9-2,2s.9,2,2,2ZM104.7,163.3c0-.4-.1-.8-.2-1.2-.2-1.1-1.2-1.8-2.2-1.7-1.1.2-1.8,1.2-1.7,2.2,0,.4.1.9.2,1.3.2,1,1,1.6,1.9,1.6s.2,0,.3,0c1.1-.2,1.8-1.2,1.6-2.3h0ZM182.4,385.2h1.3c1.1,0,2-.9,2-2s-.9-2-2-2h-1.3c-1.1,0-2,.9-2,2s.9,2,2,2ZM129.9,100.4c-.4.2-.8.5-1.1.7-.9.6-1.2,1.8-.6,2.7.4.6,1,.9,1.7.9s.7,0,1.1-.3c.4-.2.7-.4,1.1-.7.9-.6,1.2-1.8.6-2.7-.6-.9-1.8-1.2-2.7-.7h0ZM218.9,138.1c.2.9,1,1.4,1.9,1.4s.4,0,.5,0c1.1-.3,1.7-1.4,1.4-2.4-.1-.4-.2-.9-.4-1.3-.3-1-1.4-1.6-2.4-1.3s-1.6,1.4-1.3,2.4c.1.4.2.8.3,1.2h0ZM216.2,176.9l-.5,1.1c-.4,1,0,2.1,1,2.6.3.1.6.2.8.2.7,0,1.5-.4,1.8-1.1.2-.4.4-.8.5-1.2.4-1,0-2.2-1-2.6-1-.4-2.2,0-2.6,1h0ZM182.4,364.9h1.3c1.1,0,2-.9,2-2s-.9-2-2-2h-1.3c-1.1,0-2,.9-2,2s.9,2,2,2ZM216.6,122.4c-.6-.9-1.8-1.3-2.7-.7-.9.5-1.3,1.7-.7,2.7.2.3.4.7.6,1.1.4.6,1,1,1.7,1s.6,0,.9-.2c.9-.5,1.3-1.7.8-2.7-.2-.4-.4-.8-.6-1.2ZM222.4,162.3c-1.1-.2-2.1.5-2.3,1.6,0,.4-.1.8-.2,1.2-.2,1.1.5,2.1,1.6,2.3.1,0,.3,0,.4,0,.9,0,1.7-.6,1.9-1.6,0-.4.2-.9.2-1.3.2-1.1-.5-2.1-1.6-2.3h0ZM207.9,110.8c-.8-.8-2-.8-2.8,0-.8.7-.8,2,0,2.8.3.3.6.6.9.9.4.4.9.6,1.5.6s.9-.2,1.3-.5c.8-.7.9-2,.1-2.8-.3-.3-.6-.7-.9-1h0ZM197.9,102.2c-.4-.2-.7-.5-1.1-.7-.9-.6-2.1-.3-2.7.6-.6.9-.3,2.1.6,2.7.3.2.7.5,1,.7.3.2.7.3,1.1.3.6,0,1.2-.3,1.6-.8.6-.9.4-2.1-.5-2.7ZM185,95.4c-.4-.2-.8-.3-1.2-.5-1-.4-2.1.2-2.5,1.2-.4,1,.2,2.2,1.2,2.5.4.1.8.3,1.2.4.2,0,.5.1.7.1.8,0,1.5-.5,1.8-1.3.4-1-.1-2.2-1.1-2.5h0ZM221,150.3c0,.4,0,.8,0,1.2,0,1.1.9,1.9,2,1.9h0c1.1,0,1.9-1,1.9-2,0-.4,0-.9,0-1.3,0-1.1-1-1.9-2.1-1.8-1.1,0-1.9,1-1.9,2.1h0ZM182.4,406.3h1.3c1.1,0,2-.9,2-2s-.9-2-2-2h-1.3c-1.1,0-2,.9-2,2s.9,2,2,2ZM256.8,60.8c.5,0,1-.2,1.4-.6l.9-.9c.8-.8.8-2,0-2.8-.8-.8-2-.8-2.8,0l-.9.9c-.8.8-.8,2,0,2.8.4.4.9.6,1.4.6h0ZM235.7,102.4c.4.5,1,.8,1.6.8s.8-.1,1.1-.4l37.1-25.7c.9-.6,1.1-1.8.5-2.7-.6-.9-1.8-1.1-2.7-.5l-37.1,25.7c-.9.6-1.1,1.8-.5,2.7h0ZM246.8,70.8c.5,0,1-.2,1.4-.6l.9-.9c.8-.8.8-2,0-2.8-.8-.8-2-.8-2.8,0l-.9.9c-.8.8-.8,2,0,2.8.4.4.9.6,1.4.6h0ZM236.4,76.5l-.9.9c-.8.8-.8,2,0,2.8.4.4.9.6,1.4.6s1-.2,1.4-.6l.9-.9c.8-.8.8-2,0-2.8-.8-.8-2-.8-2.8,0h0ZM272.7,109.5c.2,0,.5,0,.8-.2l1.2-.5c1-.4,1.5-1.6,1.1-2.6-.4-1-1.6-1.5-2.6-1.1l-1.2.5c-1,.4-1.5,1.6-1.1,2.6.3.8,1,1.2,1.8,1.2h0ZM259.6,114.8c.2,0,.5,0,.8-.1l1.2-.5c1-.4,1.5-1.6,1.1-2.6-.4-1-1.6-1.5-2.6-1.1l-1.2.5c-1,.4-1.5,1.6-1.1,2.6.3.8,1,1.2,1.8,1.2ZM210.7,78.3c.3.2.7.3,1.1.3.6,0,1.3-.3,1.7-.9l24.5-37.9c.6-.9.3-2.1-.6-2.7-.9-.6-2.1-.3-2.7.6l-24.5,37.9c-.6.9-.3,2.1.6,2.7ZM285.8,104c.3,0,.5,0,.8-.1l1.2-.5c1-.4,1.5-1.6,1.1-2.6-.4-1-1.6-1.5-2.6-1.1l-1.2.5c-1,.4-1.5,1.6-1.1,2.6.3.8,1,1.2,1.8,1.2h0ZM162.5,35.9c1.1,0,2-.9,2-2v-1.3c0-1.1-.9-2-2-2s-2,.9-2,2v1.3c0,1.1.9,2,2,2ZM249.5,134.3c.2.9,1,1.5,1.9,1.5s.3,0,.4,0l44.2-9.5c1.1-.2,1.7-1.3,1.5-2.3-.2-1.1-1.3-1.7-2.3-1.5l-44.2,9.5c-1.1.2-1.7,1.3-1.5,2.3h0ZM162.5,21.8c1.1,0,2-.9,2-2v-1.3c0-1.1-.9-2-2-2s-2,.9-2,2v1.3c0,1.1.9,2,2,2ZM178.4,65.6c.1,0,.2,0,.4,0,.9,0,1.8-.7,1.9-1.6l8.1-44.4c.2-1.1-.5-2.1-1.6-2.3-1.1-.2-2.1.5-2.3,1.6l-8.1,44.4c-.2,1.1.5,2.1,1.6,2.3h0ZM162.5,50c1.1,0,2-.9,2-2v-1.3c0-1.1-.9-2-2-2s-2,.9-2,2v1.3c0,1.1.9,2,2,2ZM212.8,31.8c.2,0,.5.1.8.1.8,0,1.5-.5,1.8-1.2l.5-1.2c.4-1,0-2.2-1.1-2.6-1-.4-2.2,0-2.6,1.1l-.5,1.2c-.4,1,0,2.2,1.1,2.6ZM207.4,44.8c.2.1.5.2.8.2.8,0,1.5-.5,1.8-1.2l.5-1.2c.4-1,0-2.1-1.1-2.6-1-.4-2.2,0-2.6,1.1l-.5,1.2c-.4,1,0,2.2,1.1,2.6ZM202,57.9c.2,0,.5.2.8.2.8,0,1.5-.5,1.8-1.2l.5-1.2c.4-1,0-2.2-1.1-2.6-1-.4-2.2,0-2.6,1.1l-.5,1.2c-.4,1,0,2.1,1.1,2.6h0ZM196.6,70.9c.2,0,.5.1.8.1.8,0,1.5-.5,1.8-1.2l.5-1.2c.4-1,0-2.2-1.1-2.6-1-.4-2.2,0-2.6,1.1l-.5,1.2c-.4,1,0,2.1,1.1,2.6ZM7.5,276.2l-3.7,6.9,6.9-3.7,2.2,7.5,2.2-7.5,6.9,3.7-3.7-6.9,7.5-2.2-7.5-2.2,3.7-6.9-6.9,3.7-2.2-7.5-2.2,7.5-6.9-3.7,3.7,6.9L0,274s7.5,2.2,7.5,2.2ZM258.2,245.9c-.8-.8-2-.8-2.8,0-.8.8-.8,2,0,2.8l.9.9c.4.4.9.6,1.4.6s1-.2,1.4-.6c.8-.8.8-2,0-2.8l-.9-.9h0ZM249.6,117c-.4-1-1.6-1.5-2.6-1.1l-1.2.5c-1,.4-1.5,1.6-1.1,2.6.3.8,1.1,1.2,1.8,1.2s.5,0,.8-.2l1.2-.5c1-.4,1.5-1.6,1.1-2.6h0ZM248.2,235.9c-.8-.8-2-.8-2.8,0-.8.8-.8,2,0,2.8l.9.9c.4.4.9.6,1.4.6s1-.2,1.4-.6c.8-.8.8-2,0-2.8l-.9-.9h0ZM295.9,151.1c-1.1,0-2,.9-2,2s.9,2,2,2h1.3c1.1,0,2-.9,2-2s-.9-2-2-2h-1.3ZM226.4,86.5l-.9.9c-.8.8-.8,2,0,2.8.4.4.9.6,1.4.6s1-.2,1.4-.6l.9-.9c.8-.8.8-2,0-2.8s-2-.8-2.8,0ZM162.5,64.1c1.1,0,2-.9,2-2v-1.3c0-1.1-.9-2-2-2s-2,.9-2,2v1.3c0,1.1.9,2,2,2ZM98.6,86.5c-.8-.8-2-.8-2.8,0-.8.8-.8,2,0,2.8l.9.9c.4.4.9.6,1.4.6s1-.2,1.4-.6c.8-.8.8-2,0-2.8l-.9-.9h0ZM88.6,76.5c-.8-.8-2-.8-2.8,0-.8.8-.8,2,0,2.8l.9.9c.4.4.9.6,1.4.6s1-.2,1.4-.6c.8-.8.8-2,0-2.8l-.9-.9ZM278,225.1l-38-24.4c-.9-.6-2.1-.3-2.7.6s-.3,2.1.6,2.7l38,24.4c.3.2.7.3,1.1.3.6,0,1.3-.3,1.7-.9.6-.9.3-2.1-.6-2.7h0ZM253.5,155h1.3c1.1,0,2-.9,2-2s-.9-2-2-2h-1.3c-1.1,0-2,.9-2,2s.9,2,2,2ZM246.1,187.7c-.4,1,0,2.1,1.1,2.6l1.2.5c.2.1.5.2.8.2.8,0,1.5-.5,1.8-1.2.4-1,0-2.1-1.1-2.6l-1.2-.5c-1-.4-2.1,0-2.6,1.1ZM268.9,155c1.1,0,2-.9,2-2s-.9-2-2-2h-1.3c-1.1,0-2,.9-2,2s.9,2,2,2h1.3ZM283.1,155c1.1,0,2-.9,2-2s-.9-2-2-2h-1.3c-1.1,0-2,.9-2,2s.9,2,2,2h1.3ZM296.9,175.5l-44.4-8.1c-1.1-.2-2.1.5-2.3,1.6-.2,1.1.5,2.1,1.6,2.3l44.4,8.1c.1,0,.2,0,.4,0,.9,0,1.8-.7,1.9-1.6.2-1.1-.5-2.1-1.6-2.3h0ZM289.1,203.3l-1.2-.5c-1-.4-2.2,0-2.6,1.1-.4,1,0,2.1,1.1,2.6l1.2.5c.2.1.5.1.8.1.8,0,1.5-.4,1.8-1.2.4-1,0-2.2-1.1-2.6h0ZM261.5,196.1c.2,0,.5.1.8.1.8,0,1.5-.5,1.8-1.2.4-1,0-2.2-1.1-2.6l-1.2-.5c-1-.4-2.2,0-2.6,1.1-.4,1,0,2.2,1.1,2.6l1.2.5h0ZM274.5,201.5c.2.1.5.2.8.2.8,0,1.5-.5,1.8-1.2.4-1,0-2.2-1.1-2.6l-1.2-.5c-1-.4-2.2,0-2.6,1.1-.4,1,0,2.1,1.1,2.6l1.2.5h0ZM125.8,69.8c.3.8,1.1,1.2,1.8,1.2s.5,0,.8-.1c1-.4,1.5-1.6,1.1-2.6l-.5-1.2c-.4-1-1.6-1.5-2.6-1.1-1,.4-1.5,1.6-1.1,2.6l.5,1.2h0ZM66.7,60.2c.4.4.9.6,1.4.6s1-.2,1.4-.6c.8-.8.8-2,0-2.8l-.9-.9c-.8-.8-2-.8-2.8,0-.8.8-.8,2,0,2.8l.9.9ZM76.2,186.6l-1.2.5c-1,.4-1.5,1.6-1.1,2.6.3.8,1.1,1.2,1.8,1.2s.5,0,.8-.2l1.2-.5c1-.4,1.5-1.6,1.1-2.6-.4-1-1.6-1.5-2.6-1.1h0ZM141.3,64.6c.2.9,1,1.5,1.9,1.5s.3,0,.4,0c1.1-.2,1.7-1.3,1.5-2.3l-9.6-44.1c-.2-1.1-1.3-1.7-2.3-1.5s-1.7,1.3-1.5,2.3l9.6,44.1h0ZM120.4,56.8c.3.8,1.1,1.2,1.8,1.2s.5,0,.8-.2c1-.4,1.5-1.6,1.1-2.6l-.5-1.2c-.4-1-1.6-1.5-2.6-1.1-1,.4-1.5,1.6-1.1,2.6l.5,1.2h0ZM109,79.5c.4.5,1,.8,1.6.8s.8-.1,1.1-.3c.9-.6,1.1-1.8.5-2.7l-25.7-37.1c-.6-.9-1.8-1.1-2.7-.5-.9.6-1.1,1.8-.5,2.7l25.7,37.1h0ZM109.6,30.7c.3.8,1.1,1.2,1.8,1.2s.5,0,.8-.1c1-.4,1.5-1.6,1.1-2.6l-.5-1.2c-.4-1-1.6-1.5-2.6-1.1-1,.4-1.5,1.6-1.1,2.6l.5,1.2ZM76.7,70.2c.4.4.9.6,1.4.6s1-.2,1.4-.6c.8-.8.8-2,0-2.8l-.9-.9c-.8-.8-2-.8-2.8,0-.8.8-.8,2,0,2.8l.9.9h0ZM115,43.8c.3.8,1.1,1.2,1.8,1.2s.5,0,.8-.2c1-.4,1.5-1.6,1.1-2.6l-.5-1.2c-.4-1-1.6-1.5-2.6-1.1-1,.4-1.5,1.6-1.1,2.6l.5,1.2ZM276.1,302.8l-6.4,6.4,6.4,6.4,6.4-6.4-6.4-6.4ZM46.9,81l38,24.4c.3.2.7.3,1.1.3.7,0,1.3-.3,1.7-.9.6-.9.3-2.1-.6-2.7l-38-24.4c-.9-.6-2.1-.3-2.7.6-.6.9-.3,2.1.6,2.7ZM321.2,264.9l-6.9,3.7-2.2-7.5-2.2,7.5-6.9-3.7,3.7,6.9-7.5,2.2,7.5,2.2-3.7,6.9,6.9-3.7,2.2,7.5,2.2-7.5,6.9,3.7-3.7-6.9,7.5-2.2-7.5-2.2,3.7-6.9ZM269.7,424.3l6.4,6.4,6.4-6.4-6.4-6.4-6.4,6.4ZM80.2,119c.4-1,0-2.1-1.1-2.6l-1.2-.5c-1-.4-2.2,0-2.6,1.1-.4,1,0,2.2,1.1,2.6l1.2.5c.2.1.5.2.8.2.8,0,1.5-.5,1.8-1.2h0Z"/>
    </clipPath>
    <linearGradient id="Degradado_sin_nombre" data-name="Degradado sin nombre" x1="11.2" y1="842.6" x2="341.6" y2="842.6" gradientTransform="translate(-11 -579.8) scale(1)" gradientUnits="userSpaceOnUse">
      <stop offset="0" stop-color="#d8ab3d"/>
      <stop offset="0" stop-color="#d8ac3e"/>
      <stop offset="0" stop-color="#d9ac3e"/>
      <stop offset="0" stop-color="#d9ad3f"/>
      <stop offset="0" stop-color="#d9ad40"/>
      <stop offset="0" stop-color="#d9ae41"/>
      <stop offset="0" stop-color="#daae41"/>
      <stop offset="0" stop-color="#daaf42"/>
      <stop offset="0" stop-color="#daaf43"/>
      <stop offset="0" stop-color="#dab044"/>
      <stop offset="0" stop-color="#dbb044"/>
      <stop offset="0" stop-color="#dbb145"/>
      <stop offset="0" stop-color="#dbb246"/>
      <stop offset="0" stop-color="#dbb246"/>
      <stop offset="0" stop-color="#dcb347"/>
      <stop offset="0" stop-color="#dcb348"/>
      <stop offset="0" stop-color="#dcb449"/>
      <stop offset="0" stop-color="#ddb449"/>
      <stop offset="0" stop-color="#ddb54a"/>
      <stop offset="0" stop-color="#ddb54b"/>
      <stop offset="0" stop-color="#ddb64c"/>
      <stop offset="0" stop-color="#deb64c"/>
      <stop offset="0" stop-color="#deb74d"/>
      <stop offset="0" stop-color="#deb74e"/>
      <stop offset="0" stop-color="#deb84f"/>
      <stop offset="0" stop-color="#dfb84f"/>
      <stop offset="0" stop-color="#dfb950"/>
      <stop offset=".1" stop-color="#dfba51"/>
      <stop offset=".1" stop-color="#dfba52"/>
      <stop offset=".1" stop-color="#e0bb52"/>
      <stop offset=".1" stop-color="#e0bb53"/>
      <stop offset=".1" stop-color="#e0bc54"/>
      <stop offset=".1" stop-color="#e1bc54"/>
      <stop offset=".1" stop-color="#e1bd55"/>
      <stop offset=".1" stop-color="#e1bd56"/>
      <stop offset=".1" stop-color="#e1be57"/>
      <stop offset=".1" stop-color="#e2be57"/>
      <stop offset=".1" stop-color="#e2bf58"/>
      <stop offset=".2" stop-color="#e2bf59"/>
      <stop offset=".2" stop-color="#e2c05a"/>
      <stop offset=".2" stop-color="#e3c05a"/>
      <stop offset=".2" stop-color="#e3c15b"/>
      <stop offset=".2" stop-color="#e3c25c"/>
      <stop offset=".2" stop-color="#e3c25d"/>
      <stop offset=".2" stop-color="#e4c35d"/>
      <stop offset=".2" stop-color="#e4c35e"/>
      <stop offset=".2" stop-color="#e4c45f"/>
      <stop offset=".2" stop-color="#e5c45f"/>
      <stop offset=".2" stop-color="#e5c560"/>
      <stop offset=".2" stop-color="#e5c561"/>
      <stop offset=".2" stop-color="#e5c662"/>
      <stop offset=".2" stop-color="#e6c662"/>
      <stop offset=".2" stop-color="#e6c763"/>
      <stop offset=".2" stop-color="#e6c764"/>
      <stop offset=".2" stop-color="#e6c865"/>
      <stop offset=".2" stop-color="#e7c865"/>
      <stop offset=".2" stop-color="#e7c966"/>
      <stop offset=".2" stop-color="#e7ca67"/>
      <stop offset=".2" stop-color="#e7ca68"/>
      <stop offset=".2" stop-color="#e8cb68"/>
      <stop offset=".2" stop-color="#e8cb69"/>
      <stop offset=".2" stop-color="#e8cc6a"/>
      <stop offset=".2" stop-color="#e9cc6b"/>
      <stop offset=".2" stop-color="#e9cd6b"/>
      <stop offset=".2" stop-color="#e9cd6c"/>
      <stop offset=".2" stop-color="#e9ce6d"/>
      <stop offset=".3" stop-color="#eace6d"/>
      <stop offset=".3" stop-color="#eacf6e"/>
      <stop offset=".3" stop-color="#eacf6f"/>
      <stop offset=".3" stop-color="#ead070"/>
      <stop offset=".3" stop-color="#ebd070"/>
      <stop offset=".3" stop-color="#ebd171"/>
      <stop offset=".3" stop-color="#ebd272"/>
      <stop offset=".3" stop-color="#ebd273"/>
      <stop offset=".3" stop-color="#ecd373"/>
      <stop offset=".3" stop-color="#ecd374"/>
      <stop offset=".3" stop-color="#ecd475"/>
      <stop offset=".3" stop-color="#edd476"/>
      <stop offset=".3" stop-color="#edd576"/>
      <stop offset=".3" stop-color="#edd577"/>
      <stop offset=".3" stop-color="#edd678"/>
      <stop offset=".3" stop-color="#eed678"/>
      <stop offset=".3" stop-color="#eed779"/>
      <stop offset=".3" stop-color="#eed77a"/>
      <stop offset=".3" stop-color="#eed87b"/>
      <stop offset=".3" stop-color="#efd97b"/>
      <stop offset=".3" stop-color="#efd97c"/>
      <stop offset=".3" stop-color="#efda7d"/>
      <stop offset=".3" stop-color="#efda7e"/>
      <stop offset=".3" stop-color="#f0db7e"/>
      <stop offset=".3" stop-color="#f0db7f"/>
      <stop offset=".4" stop-color="#f0dc80"/>
      <stop offset=".4" stop-color="#f1dc81"/>
      <stop offset=".4" stop-color="#f1dd81"/>
      <stop offset=".4" stop-color="#f1dd82"/>
      <stop offset=".4" stop-color="#f1de83"/>
      <stop offset=".4" stop-color="#f2de83"/>
      <stop offset=".4" stop-color="#f2df84"/>
      <stop offset=".4" stop-color="#f2df85"/>
      <stop offset=".4" stop-color="#f2e086"/>
      <stop offset=".4" stop-color="#f3e186"/>
      <stop offset=".4" stop-color="#f3e187"/>
      <stop offset=".4" stop-color="#f3e288"/>
      <stop offset=".4" stop-color="#f3e289"/>
      <stop offset=".4" stop-color="#f4e389"/>
      <stop offset=".4" stop-color="#f4e38a"/>
      <stop offset=".4" stop-color="#f4e48b"/>
      <stop offset=".4" stop-color="#f5e48c"/>
      <stop offset=".4" stop-color="#f5e58c"/>
      <stop offset=".4" stop-color="#f5e58d"/>
      <stop offset=".4" stop-color="#f5e68e"/>
      <stop offset=".4" stop-color="#f6e68f"/>
      <stop offset=".4" stop-color="#f6e78f"/>
      <stop offset=".4" stop-color="#f6e790"/>
      <stop offset=".5" stop-color="#f6e891"/>
      <stop offset=".5" stop-color="#f7e991"/>
      <stop offset=".5" stop-color="#f7e992"/>
      <stop offset=".5" stop-color="#f7ea93"/>
      <stop offset=".5" stop-color="#f7ea94"/>
      <stop offset=".5" stop-color="#f8eb94"/>
      <stop offset=".5" stop-color="#f8eb95"/>
      <stop offset=".5" stop-color="#f8ec96"/>
      <stop offset=".5" stop-color="#f9ec97"/>
      <stop offset=".5" stop-color="#f9ed97"/>
      <stop offset=".5" stop-color="#f9ed98"/>
      <stop offset=".5" stop-color="#f9ee99"/>
      <stop offset=".5" stop-color="#faee9a"/>
      <stop offset=".5" stop-color="#faef9a"/>
      <stop offset=".5" stop-color="#faef9b"/>
      <stop offset=".5" stop-color="#faf09c"/>
      <stop offset=".5" stop-color="#fbf19c"/>
      <stop offset=".5" stop-color="#fbf09c"/>
      <stop offset=".5" stop-color="#faf09b"/>
      <stop offset=".5" stop-color="#faef9b"/>
      <stop offset=".5" stop-color="#faef9a"/>
      <stop offset=".5" stop-color="#f9ee99"/>
      <stop offset=".5" stop-color="#f9ee98"/>
      <stop offset=".5" stop-color="#f9ed98"/>
      <stop offset=".5" stop-color="#f9ec97"/>
      <stop offset=".6" stop-color="#f8ec96"/>
      <stop offset=".6" stop-color="#f8eb95"/>
      <stop offset=".6" stop-color="#f8eb94"/>
      <stop offset=".6" stop-color="#f8ea94"/>
      <stop offset=".6" stop-color="#f7ea93"/>
      <stop offset=".6" stop-color="#f7e992"/>
      <stop offset=".6" stop-color="#f7e891"/>
      <stop offset=".6" stop-color="#f6e891"/>
      <stop offset=".6" stop-color="#f6e790"/>
      <stop offset=".6" stop-color="#f6e78f"/>
      <stop offset=".6" stop-color="#f6e68e"/>
      <stop offset=".6" stop-color="#f5e68e"/>
      <stop offset=".6" stop-color="#f5e58d"/>
      <stop offset=".6" stop-color="#f5e58c"/>
      <stop offset=".6" stop-color="#f4e48b"/>
      <stop offset=".6" stop-color="#f4e38b"/>
      <stop offset=".6" stop-color="#f4e38a"/>
      <stop offset=".6" stop-color="#f4e289"/>
      <stop offset=".6" stop-color="#f3e288"/>
      <stop offset=".6" stop-color="#f3e187"/>
      <stop offset=".6" stop-color="#f3e187"/>
      <stop offset=".6" stop-color="#f2e086"/>
      <stop offset=".6" stop-color="#f2e085"/>
      <stop offset=".6" stop-color="#f2df84"/>
      <stop offset=".6" stop-color="#f2de84"/>
      <stop offset=".6" stop-color="#f1de83"/>
      <stop offset=".7" stop-color="#f1dd82"/>
      <stop offset=".7" stop-color="#f1dd81"/>
      <stop offset=".7" stop-color="#f1dc81"/>
      <stop offset=".7" stop-color="#f0dc80"/>
      <stop offset=".7" stop-color="#f0db7f"/>
      <stop offset=".7" stop-color="#f0db7e"/>
      <stop offset=".7" stop-color="#efda7d"/>
      <stop offset=".7" stop-color="#efd97d"/>
      <stop offset=".7" stop-color="#efd97c"/>
      <stop offset=".7" stop-color="#efd87b"/>
      <stop offset=".7" stop-color="#eed87a"/>
      <stop offset=".7" stop-color="#eed77a"/>
      <stop offset=".7" stop-color="#eed779"/>
      <stop offset=".7" stop-color="#edd678"/>
      <stop offset=".7" stop-color="#edd677"/>
      <stop offset=".7" stop-color="#edd577"/>
      <stop offset=".7" stop-color="#edd476"/>
      <stop offset=".7" stop-color="#ecd475"/>
      <stop offset=".7" stop-color="#ecd374"/>
      <stop offset=".7" stop-color="#ecd373"/>
      <stop offset=".7" stop-color="#ecd273"/>
      <stop offset=".7" stop-color="#ebd272"/>
      <stop offset=".7" stop-color="#ebd171"/>
      <stop offset=".7" stop-color="#ebd070"/>
      <stop offset=".7" stop-color="#ead070"/>
      <stop offset=".8" stop-color="#eacf6f"/>
      <stop offset=".8" stop-color="#eacf6e"/>
      <stop offset=".8" stop-color="#eace6d"/>
      <stop offset=".8" stop-color="#e9ce6d"/>
      <stop offset=".8" stop-color="#e9cd6c"/>
      <stop offset=".8" stop-color="#e9cd6b"/>
      <stop offset=".8" stop-color="#e8cc6a"/>
      <stop offset=".8" stop-color="#e8cb69"/>
      <stop offset=".8" stop-color="#e8cb69"/>
      <stop offset=".8" stop-color="#e8ca68"/>
      <stop offset=".8" stop-color="#e7ca67"/>
      <stop offset=".8" stop-color="#e7c966"/>
      <stop offset=".8" stop-color="#e7c966"/>
      <stop offset=".8" stop-color="#e6c865"/>
      <stop offset=".8" stop-color="#e6c864"/>
      <stop offset=".8" stop-color="#e6c763"/>
      <stop offset=".8" stop-color="#e6c663"/>
      <stop offset=".8" stop-color="#e5c662"/>
      <stop offset=".8" stop-color="#e5c561"/>
      <stop offset=".8" stop-color="#e5c560"/>
      <stop offset=".8" stop-color="#e5c460"/>
      <stop offset=".8" stop-color="#e4c45f"/>
      <stop offset=".8" stop-color="#e4c35e"/>
      <stop offset=".8" stop-color="#e4c35d"/>
      <stop offset=".8" stop-color="#e3c25c"/>
      <stop offset=".8" stop-color="#e3c15c"/>
      <stop offset=".8" stop-color="#e3c15b"/>
      <stop offset=".8" stop-color="#e3c05a"/>
      <stop offset=".9" stop-color="#e2c059"/>
      <stop offset=".9" stop-color="#e2bf59"/>
      <stop offset=".9" stop-color="#e2bf58"/>
      <stop offset=".9" stop-color="#e1be57"/>
      <stop offset=".9" stop-color="#e1be56"/>
      <stop offset=".9" stop-color="#e1bd56"/>
      <stop offset=".9" stop-color="#e1bc55"/>
      <stop offset=".9" stop-color="#e0bc54"/>
      <stop offset=".9" stop-color="#e0bb53"/>
      <stop offset=".9" stop-color="#e0bb52"/>
      <stop offset=".9" stop-color="#e0ba52"/>
      <stop offset=".9" stop-color="#dfba51"/>
      <stop offset=".9" stop-color="#dfb950"/>
      <stop offset=".9" stop-color="#dfb84f"/>
      <stop offset=".9" stop-color="#deb84f"/>
      <stop offset=".9" stop-color="#deb74e"/>
      <stop offset=".9" stop-color="#deb74d"/>
      <stop offset=".9" stop-color="#deb64c"/>
      <stop offset=".9" stop-color="#ddb64c"/>
      <stop offset=".9" stop-color="#ddb54b"/>
      <stop offset=".9" stop-color="#ddb54a"/>
      <stop offset=".9" stop-color="#dcb449"/>
      <stop offset=".9" stop-color="#dcb348"/>
      <stop offset=".9" stop-color="#dcb348"/>
      <stop offset=".9" stop-color="#dcb247"/>
      <stop offset=".9" stop-color="#dbb246"/>
      <stop offset="1" stop-color="#dbb145"/>
      <stop offset="1" stop-color="#dbb145"/>
      <stop offset="1" stop-color="#dab044"/>
      <stop offset="1" stop-color="#dab043"/>
      <stop offset="1" stop-color="#daaf42"/>
      <stop offset="1" stop-color="#daae42"/>
      <stop offset="1" stop-color="#d9ae41"/>
      <stop offset="1" stop-color="#d9ad40"/>
      <stop offset="1" stop-color="#d9ad3f"/>
      <stop offset="1" stop-color="#d9ac3e"/>
      <stop offset="1" stop-color="#d8ac3e"/>
      <stop offset="1" stop-color="#d8ab3d"/>
    </linearGradient>
  </defs>
  <!-- Generator: Adobe Illustrator 28.7.3, SVG Export Plug-In . SVG Version: 1.2.0 Build 164)  -->
  <g>
    <g id="Capa_2">
      <g id="Capa_1-2">
        <path class="cls-5" d="M162.5,75.9c-42.9,0-77.8,34.9-77.8,77.7s4.8,30.7,13.1,43c1.4-1.3,2.8-2.4,4.4-3.4,2.9-1.8,5.8-3.5,8.8-5.1,0-.6.3-1.1.8-1.5.7-.5,1.6-.5,2.2,0,34.6-16.7,76-14.5,108.9,6.6,1.6,1,3.1,2.2,4.4,3.4,8.2-12.3,13.1-27.1,13.1-43,0-42.9-34.9-77.7-77.8-77.7h0ZM102.8,135.1c.1-.4.3-.8.4-1.3.3-1,1.5-1.6,2.5-1.2s1.6,1.5,1.2,2.5c-.1.4-.3.8-.4,1.2-.3.8-1,1.4-1.9,1.4s-.4,0-.6,0c-1-.3-1.6-1.4-1.3-2.5h0ZM100.1,149.4c0-.4,0-.9,0-1.3,0-1.1,1.1-1.9,2.1-1.8,1.1,0,1.9,1.1,1.8,2.1,0,.4,0,.8,0,1.2,0,1-.9,1.8-2,1.8h-.1c-1.1,0-1.9-1-1.8-2.1h0ZM103.1,165.5c-.1,0-.2,0-.3,0-.9,0-1.8-.7-1.9-1.6,0-.4-.1-.9-.2-1.3-.2-1.1.6-2.1,1.7-2.2,1.1-.1,2.1.6,2.2,1.7,0,.4.1.8.2,1.2.2,1.1-.6,2.1-1.6,2.3h0ZM107.4,178.9c-.2.1-.5.1-.8.1-.8,0-1.5-.4-1.8-1.2-.2-.4-.3-.8-.5-1.2-.4-1,0-2.1,1.1-2.6s2.2,0,2.6,1.1c.2.4.3.8.5,1.1.4,1,0,2.2-1.1,2.6h0ZM112.7,122.8c-.2.3-.4.7-.7,1.1-.4.6-1,1-1.7,1s-.7,0-1-.3c-.9-.6-1.2-1.8-.7-2.7.2-.4.5-.8.7-1.1.6-.9,1.8-1.2,2.7-.6s1.2,1.8.6,2.7h0ZM121.2,112.1c-.3.3-.6.6-.9.9-.4.4-.9.6-1.4.6s-1-.2-1.4-.6c-.8-.8-.8-2,0-2.8.3-.3.6-.6.9-.9.8-.8,2-.8,2.8,0s.8,2,0,2.8h0ZM132,103.7c-.4.2-.7.4-1.1.7-.3.2-.7.3-1.1.3-.6,0-1.3-.3-1.7-.9-.6-.9-.3-2.1.6-2.7.4-.2.7-.5,1.1-.7.9-.6,2.1-.3,2.7.7.6.9.3,2.1-.6,2.7h0ZM164.4,159v14.6c0,1.1-.9,2-2,2s-2-.9-2-2v-14.6c-10.2-1-18.2-9.6-18.2-20.1s1.9-3.9,3.9-5.2c3.2-2.1,7.9-5.4,11.4-16,3.2-9.8,2.9-18.2,2.9-18.3,0-.5.2-1.1.5-1.4.4-.4.9-.6,1.4-.6,12,0,20.2,31.2,20.2,41.6s-8,19.1-18.2,20.1h0ZM186.1,97.9c-.3.8-1.1,1.3-1.8,1.3s-.5,0-.7-.1c-.4-.2-.8-.3-1.2-.4-1-.4-1.6-1.5-1.2-2.5.4-1,1.5-1.6,2.5-1.2.4.2.8.3,1.2.5,1,.4,1.5,1.5,1.1,2.5h0ZM198.4,104.9c-.4.6-1,.8-1.6.8s-.8-.1-1.1-.3c-.3-.2-.7-.5-1-.7-.9-.6-1.2-1.8-.6-2.7.6-.9,1.8-1.2,2.7-.6.4.2.7.5,1.1.7.9.6,1.1,1.8.5,2.7h0ZM208.7,114.5c-.4.3-.9.5-1.3.5s-1.1-.2-1.5-.6c-.3-.3-.6-.6-.9-.9-.7-.8-.7-2,0-2.8.8-.7,2-.7,2.8,0,.3.3.6.6.9,1,.7.8.7,2-.1,2.8h0ZM224,164.6c0,.4-.2.9-.2,1.3-.2.9-1,1.6-1.9,1.6s-.3,0-.4,0c-1.1-.2-1.8-1.2-1.6-2.3,0-.4.2-.8.2-1.2.2-1.1,1.2-1.8,2.3-1.6s1.8,1.2,1.6,2.3h0ZM224.9,150.1c0,.4,0,.9,0,1.3,0,1.1-.8,2-1.9,2h0c-1.1,0-1.9-.8-2-1.9,0-.4,0-.8,0-1.2,0-1.1.8-2,1.9-2.1,1.1,0,2,.8,2.1,1.9h0ZM219.9,134.4c1-.3,2.1.3,2.4,1.3.1.4.2.9.4,1.3.3,1.1-.3,2.1-1.4,2.4-.2,0-.4,0-.5,0-.9,0-1.7-.6-1.9-1.4-.1-.4-.2-.8-.3-1.2-.3-1,.3-2.1,1.3-2.4h0ZM218.8,175.9c1,.4,1.4,1.6,1,2.6-.2.4-.4.8-.5,1.2-.3.7-1,1.1-1.8,1.1s-.6,0-.8-.2c-1-.4-1.4-1.6-1-2.6.2-.4.3-.8.5-1.1.4-1,1.6-1.4,2.6-1h0ZM216.5,126.2c-.3.2-.6.2-.9.2-.7,0-1.4-.4-1.7-1-.2-.4-.4-.7-.6-1.1-.6-.9-.2-2.1.7-2.7.9-.5,2.1-.2,2.7.7.2.4.4.8.6,1.2.5.9.2,2.2-.8,2.7Z"/>
        <path class="cls-5" d="M144.4,345.8l-2.5,11.4c4.2,0,7.9,1.8,10.6,4.6.4-.5.9-.8,1.6-.8h1.3c1.1,0,2,.9,2,2s-.9,2-2,2h-.6c1.1,2,1.7,4.3,1.7,6.7s0,1.8-.3,2.7c1.6-.6,3.2-.9,4.9-.9,8,0,14.5,6.5,14.5,14.5s-6.5,14.5-14.5,14.5-6.8-1.3-9.3-3.4c-1.2,6.8-7.1,12-14.3,12s-4.9-.6-6.9-1.8l-2.7,12.2c-.2.9-1,1.5-1.9,1.5s-.3,0-.4,0c-1.1-.2-1.7-1.3-1.5-2.3l3-14c-.1-.1-.2-.3-.4-.4h-1c-1.1,0-2-.9-2-2s.3-1.1.7-1.5c-.9-1.9-1.5-4-1.5-6.3,0-6.1,3.8-11.4,9.3-13.5v-.5c-1.8-1.7-3.3-3.8-4.1-6.3-4.2-2.6-10.3-6.5-16.5-11.4-.9,0-1.7-.6-1.9-1.5-10-8-20.3-18.1-24.4-28.7v6.8c.8.3,1.3,1,1.3,1.8s-.5,1.6-1.3,1.8v15.9c.8.3,1.3,1,1.3,1.8s-.5,1.6-1.3,1.8v16.6c.8.3,1.3,1,1.3,1.8s-.5,1.6-1.3,1.8v17.4c.8.3,1.3,1,1.3,1.8s-.5,1.6-1.3,1.8v18.3h154.2v-18.2h-.7c-1.1,0-2-.9-2-2s.9-2,2-2h.7v-17.2h-.7c-1.1,0-2-.9-2-2s.9-2,2-2h.7v-16.3h-.7c-1.1,0-2-.9-2-2s.9-2,2-2h.7v-15.7h-.7c-1.1,0-2-.9-2-2s.9-2,2-2h.7v-17h-83.5c-3.3,8.5-7.4,16.1-11.7,21.4h0ZM125.8,381.2h1.3c1.1,0,2,.9,2,2s-.9,2-2,2h-1.3c-1.1,0-2-.9-2-2s.9-2,2-2ZM98.8,406.3h-1.3c-1.1,0-2-.9-2-2s.9-2,2-2h1.3c1.1,0,2,.9,2,2s-.9,2-2,2ZM98.8,385.2h-1.3c-1.1,0-2-.9-2-2s.9-2,2-2h1.3c1.1,0,2,.9,2,2s-.9,2-2,2ZM98.8,364.9h-1.3c-1.1,0-2-.9-2-2s.9-2,2-2h1.3c1.1,0,2,.9,2,2s-.9,2-2,2ZM113,406.3h-1.3c-1.1,0-2-.9-2-2s.9-2,2-2h1.3c1.1,0,2,.9,2,2s-.9,2-2,2ZM113,385.2h-1.3c-1.1,0-2-.9-2-2s.9-2,2-2h1.3c1.1,0,2,.9,2,2s-.9,2-2,2ZM155.4,406.3h-1.3c-1.1,0-2-.9-2-2s.9-2,2-2h1.3c1.1,0,2,.9,2,2s-.9,2-2,2ZM169.5,406.3h-1.3c-1.1,0-2-.9-2-2s.9-2,2-2h1.3c1.1,0,2,.9,2,2s-.9,2-2,2ZM224.7,341.4h1.3c1.1,0,2,.9,2,2s-.9,2-2,2h-1.3c-1.1,0-2-.9-2-2s.9-2,2-2ZM224.7,361h1.3c1.1,0,2,.9,2,2s-.9,2-2,2h-1.3c-1.1,0-2-.9-2-2s.9-2,2-2ZM224.7,381.2h1.3c1.1,0,2,.9,2,2s-.9,2-2,2h-1.3c-1.1,0-2-.9-2-2s.9-2,2-2ZM224.7,402.3h1.3c1.1,0,2,.9,2,2s-.9,2-2,2h-1.3c-1.1,0-2-.9-2-2s.9-2,2-2ZM210.6,341.4h1.3c1.1,0,2,.9,2,2s-.9,2-2,2h-1.3c-1.1,0-2-.9-2-2s.9-2,2-2ZM210.6,361h1.3c1.1,0,2,.9,2,2s-.9,2-2,2h-1.3c-1.1,0-2-.9-2-2s.9-2,2-2ZM210.6,381.2h1.3c1.1,0,2,.9,2,2s-.9,2-2,2h-1.3c-1.1,0-2-.9-2-2s.9-2,2-2ZM210.6,402.3h1.3c1.1,0,2,.9,2,2s-.9,2-2,2h-1.3c-1.1,0-2-.9-2-2s.9-2,2-2ZM196.5,341.4h1.3c1.1,0,2,.9,2,2s-.9,2-2,2h-1.3c-1.1,0-2-.9-2-2s.9-2,2-2ZM196.5,361h1.3c1.1,0,2,.9,2,2s-.9,2-2,2h-1.3c-1.1,0-2-.9-2-2s.9-2,2-2ZM196.5,381.2h1.3c1.1,0,2,.9,2,2s-.9,2-2,2h-1.3c-1.1,0-2-.9-2-2s.9-2,2-2ZM196.5,402.3h1.3c1.1,0,2,.9,2,2s-.9,2-2,2h-1.3c-1.1,0-2-.9-2-2s.9-2,2-2ZM182.4,341.4h1.3c1.1,0,2,.9,2,2s-.9,2-2,2h-1.3c-1.1,0-2-.9-2-2s.9-2,2-2ZM182.4,361h1.3c1.1,0,2,.9,2,2s-.9,2-2,2h-1.3c-1.1,0-2-.9-2-2s.9-2,2-2ZM182.4,381.2h1.3c1.1,0,2,.9,2,2s-.9,2-2,2h-1.3c-1.1,0-2-.9-2-2s.9-2,2-2ZM182.4,402.3h1.3c1.1,0,2,.9,2,2s-.9,2-2,2h-1.3c-1.1,0-2-.9-2-2s.9-2,2-2ZM168.2,341.4h1.3c1.1,0,2,.9,2,2s-.9,2-2,2h-1.3c-1.1,0-2-.9-2-2s.9-2,2-2ZM168.2,361h1.3c1.1,0,2,.9,2,2s-.9,2-2,2h-1.3c-1.1,0-2-.9-2-2s.9-2,2-2ZM157.3,343.3c0,1.1-.9,2-2,2h-1.3c-1.1,0-2-.9-2-2s.9-2,2-2h1.3c1.1,0,2,.9,2,2Z"/>
        <path id="hoja" class="cls-7" d="M148,320.5c-.1,1.3-.2,2.6-.3,3.9-.4,4.1-.8,7.9-1.4,11.5,2-3.5,3.8-7.4,5.5-11.5.5-1.3,1-2.6,1.5-3.9,1.6-4.5,3-9.1,4.1-13.8.3-1.3.6-2.6.8-3.9,2.5-12.6,2.5-24.5-1.3-31-2-3.4-4.8-5-8.7-5s-1.8,0-2.8.3c-.6.1-1.2.2-1.8.4-1.6.4-3,.9-4.3,1.5-3.7,1.7-6.4,4.4-8.2,8-3,6-3.2,13.9-2,22.2.2,1.4.4,2.8.7,4.2,1.1,5.9,2.8,11.8,4.7,17.2.5,1.3.9,2.6,1.4,3.9,2.1,5.8,4.3,10.9,5.9,14.4.8-4.4,1.4-9.2,1.9-14.4.1-1.3.2-2.6.3-3.9.3-4.6.6-9.5.7-14.7,0-.2,0-.5,0-.7,0-1.1.9-1.9,2-1.9h0c1.1,0,1.9.9,1.9,2,0,.4,0,.7,0,1-.1,5-.3,9.8-.6,14.3h0Z"/>
        <path id="antorcha" class="cls-7" d="M164.4,101.8c-.1,3.4-.7,9.9-3.1,17.1-3.9,11.9-9.6,15.7-12.9,18-1.5,1-2.2,1.5-2.2,2,0,8.3,6.3,15.1,14.3,16.1v-14.2c0-1.1.9-2,2-2s2,.9,2,2v14.2c8-1,14.3-7.8,14.3-16.1s-7.1-33.3-14.3-37.1h0Z"/>
        <path class="cls-5" d="M94.9,199.6c-9-13.1-14.2-28.9-14.2-45.9,0-45,36.7-81.7,81.8-81.7s81.8,36.6,81.8,81.7-5.2,32.8-14.2,45.9c4.4,5.2,7.1,11.8,7.6,18.7h3.9c1.1,0,2,.9,2,2v58.7c24.7-15.9,45-39.1,57-68.2,15.3-36.8,15.2-77.3,0-114.2-15.3-36.9-44-65.6-80.8-80.8-18.4-7.6-37.7-11.4-57.1-11.4s-38.8,3.8-57.3,11.5C68.4,31.1,39.7,59.8,24.4,96.5c-15.2,36.8-15.2,77.3,0,114.2,11.8,28.5,31.6,52,57,68.3v-58.8c0-1.1.9-2,2-2h3.9c.4-7,3.1-13.5,7.6-18.7h0ZM89.5,80.2c-.4.4-.9.6-1.4.6s-1-.2-1.4-.6l-.9-.9c-.8-.8-.8-2,0-2.8s2-.8,2.8,0l.9.9c.8.8.8,2,0,2.8ZM99.5,90.2c-.4.4-.9.6-1.4.6s-1-.2-1.4-.6l-.9-.9c-.8-.8-.8-2,0-2.8s2-.8,2.8,0l.9.9c.8.8.8,2,0,2.8h0ZM229.1,89.3l-.9.9c-.4.4-.9.6-1.4.6s-1-.2-1.4-.6c-.8-.8-.8-2,0-2.8l.9-.9c.8-.8,2-.8,2.8,0,.8.8.8,2,0,2.8ZM249.1,239.6c-.4.4-.9.6-1.4.6s-1-.2-1.4-.6l-.9-.9c-.8-.8-.8-2,0-2.8s2-.8,2.8,0l.9.9c.8.8.8,2,0,2.8h0ZM259.1,249.6c-.4.4-.9.6-1.4.6s-1-.2-1.4-.6l-.9-.9c-.8-.8-.8-2,0-2.8.8-.8,2-.8,2.8,0l.9.9c.8.8.8,2,0,2.8h0ZM278.6,227.8c-.4.6-1,.9-1.7.9s-.7-.1-1.1-.3l-38-24.4c-.9-.6-1.2-1.8-.6-2.7.6-.9,1.8-1.2,2.7-.6l38,24.4c.9.6,1.2,1.8.6,2.7h0ZM248.5,119.6l-1.2.5c-.2,0-.5.2-.8.2-.8,0-1.5-.5-1.8-1.2-.4-1,0-2.2,1.1-2.6l1.2-.5c1-.4,2.2,0,2.6,1.1.4,1,0,2.2-1.1,2.6h0ZM249.9,187.1c1,.4,1.5,1.6,1.1,2.6-.3.8-1.1,1.2-1.8,1.2s-.5,0-.8-.1l-1.2-.5c-1-.4-1.5-1.6-1.1-2.6.4-1,1.6-1.5,2.6-1.1l1.2.5h0ZM259.2,193.1c.4-1,1.6-1.5,2.6-1.1l1.2.5c1,.4,1.5,1.6,1.1,2.6-.3.8-1,1.2-1.8,1.2s-.5,0-.8-.1l-1.2-.5c-1-.4-1.5-1.6-1.1-2.6h0ZM272.3,198.5c.4-1,1.6-1.5,2.6-1.1l1.2.5c1,.4,1.5,1.6,1.1,2.6-.3.8-1,1.2-1.8,1.2s-.5,0-.8-.1l-1.2-.5c-1-.4-1.5-1.6-1.1-2.6h0ZM290.1,205.9c-.3.8-1,1.2-1.8,1.2s-.5,0-.8-.1l-1.2-.5c-1-.4-1.5-1.6-1.1-2.6.4-1,1.6-1.5,2.6-1.1l1.2.5c1,.4,1.5,1.6,1.1,2.6h0ZM298.4,177.7c-.2.9-1,1.6-1.9,1.6s-.2,0-.4,0l-44.4-8.1c-1.1-.2-1.8-1.2-1.6-2.3s1.2-1.8,2.3-1.6l44.4,8.1c1.1.2,1.8,1.2,1.6,2.3h0ZM251.6,153.1c0-1.1.9-2,2-2h1.3c1.1,0,2,.9,2,2s-.9,2-2,2h-1.3c-1.1,0-2-.9-2-2h0ZM265.7,153.1c0-1.1.9-2,2-2h1.3c1.1,0,2,.9,2,2s-.9,2-2,2h-1.3c-1.1,0-2-.9-2-2ZM279.8,153.1c0-1.1.9-2,2-2h1.3c1.1,0,2,.9,2,2s-.9,2-2,2h-1.3c-1.1,0-2-.9-2-2ZM299.2,153.1c0,1.1-.9,2-2,2h-1.3c-1.1,0-2-.9-2-2s.9-2,2-2h1.3c1.1,0,2,.9,2,2ZM297.5,123.9c.2,1.1-.4,2.1-1.5,2.3l-44.2,9.5c-.1,0-.3,0-.4,0-.9,0-1.7-.6-1.9-1.6-.2-1.1.4-2.1,1.5-2.3l44.2-9.5c1.1-.2,2.1.4,2.3,1.5h0ZM258.9,111.1l1.2-.5c1-.4,2.2,0,2.6,1.1.4,1,0,2.2-1.1,2.6l-1.2.5c-.2,0-.5.2-.8.2-.8,0-1.5-.5-1.8-1.2-.4-1,0-2.2,1.1-2.6ZM271.9,105.7l1.2-.5c1-.4,2.2,0,2.6,1.1.4,1,0,2.2-1.1,2.6l-1.2.5c-.2,0-.5.2-.8.2-.8,0-1.5-.5-1.8-1.2-.4-1,0-2.2,1.1-2.6h0ZM285,100.3l1.2-.5c1-.4,2.2,0,2.6,1.1.4,1,0,2.2-1.1,2.6l-1.2.5c-.2,0-.5.2-.8.2-.8,0-1.5-.4-1.8-1.2-.4-1,0-2.2,1.1-2.6h0ZM273.3,74c.9-.6,2.1-.4,2.7.5.6.9.4,2.1-.5,2.7l-37.1,25.7c-.3.2-.7.3-1.1.3-.6,0-1.2-.3-1.6-.8-.6-.9-.4-2.1.5-2.7l37.1-25.7h0ZM255.4,57.5l.9-.9c.8-.8,2-.8,2.8,0,.8.8.8,2,0,2.8l-.9.9c-.4.4-.9.6-1.4.6s-1-.2-1.4-.6c-.8-.8-.8-2,0-2.8h0ZM245.4,67.4l.9-.9c.8-.8,2-.8,2.8,0,.8.8.8,2,0,2.8l-.9.9c-.4.4-.9.6-1.4.6s-1-.2-1.4-.6c-.8-.8-.8-2,0-2.8h0ZM239.1,79.3l-.9.9c-.4.4-.9.6-1.4.6s-1-.2-1.4-.6c-.8-.8-.8-2,0-2.8l.9-.9c.8-.8,2-.8,2.8,0s.8,2,0,2.8h0ZM234.6,37.7c.6-.9,1.8-1.2,2.7-.6.9.6,1.2,1.8.6,2.7l-24.5,37.9c-.4.6-1,.9-1.7.9s-.7,0-1.1-.3c-.9-.6-1.2-1.8-.6-2.7l24.5-37.9ZM211.7,29.2l.5-1.2c.4-1,1.6-1.5,2.6-1.1,1,.4,1.5,1.6,1.1,2.6l-.5,1.2c-.3.8-1.1,1.2-1.8,1.2s-.5,0-.8-.1c-1-.4-1.5-1.6-1.1-2.6ZM206.3,42.3l.5-1.2c.4-1,1.6-1.5,2.6-1.1,1,.4,1.5,1.6,1.1,2.6l-.5,1.2c-.3.8-1.1,1.2-1.8,1.2s-.5,0-.8-.2c-1-.4-1.5-1.6-1.1-2.6ZM200.9,55.3l.5-1.2c.4-1,1.6-1.5,2.6-1.1,1,.4,1.5,1.6,1.1,2.6l-.5,1.2c-.3.8-1.1,1.2-1.8,1.2s-.5,0-.8-.2c-1-.4-1.5-1.6-1.1-2.6h0ZM195.5,68.3l.5-1.2c.4-1,1.6-1.5,2.6-1.1,1,.4,1.5,1.6,1.1,2.6l-.5,1.2c-.3.8-1.1,1.2-1.8,1.2s-.5,0-.8-.2c-1-.4-1.5-1.6-1.1-2.6ZM176.8,63.3l8.1-44.4c.2-1.1,1.2-1.8,2.3-1.6,1.1.2,1.8,1.2,1.6,2.3l-8.1,44.4c-.2.9-1,1.6-1.9,1.6s-.2,0-.4,0c-1.1-.2-1.8-1.2-1.6-2.3h0ZM160.5,18.6c0-1.1.9-2,2-2s2,.9,2,2v1.3c0,1.1-.9,2-2,2s-2-.9-2-2v-1.3ZM160.5,32.7c0-1.1.9-2,2-2s2,.9,2,2v1.3c0,1.1-.9,2-2,2s-2-.9-2-2v-1.3ZM160.5,46.8c0-1.1.9-2,2-2s2,.9,2,2v1.3c0,1.1-.9,2-2,2s-2-.9-2-2v-1.3ZM160.5,60.9c0-1.1.9-2,2-2s2,.9,2,2v1.3c0,1.1-.9,2-2,2s-2-.9-2-2v-1.3ZM133.3,18.2c1.1-.2,2.1.4,2.3,1.5l9.6,44.1c.2,1.1-.4,2.1-1.5,2.3-.1,0-.3,0-.4,0-.9,0-1.7-.6-1.9-1.6l-9.6-44.1c-.2-1.1.4-2.1,1.5-2.3h0ZM126.4,66.1c1-.4,2.2,0,2.6,1.1l.5,1.2c.4,1,0,2.2-1.1,2.6-.2,0-.5.2-.8.2-.8,0-1.5-.5-1.8-1.2l-.5-1.2c-.4-1,0-2.2,1.1-2.6h0ZM121,53.1c1-.4,2.2,0,2.6,1.1l.5,1.2c.4,1,0,2.2-1.1,2.6-.2,0-.5.2-.8.2-.8,0-1.5-.5-1.8-1.2l-.5-1.2c-.4-1,0-2.2,1.1-2.6h0ZM115.6,40c1-.4,2.2,0,2.6,1.1l.5,1.2c.4,1,0,2.2-1.1,2.6-.2,0-.5.2-.8.2-.8,0-1.5-.5-1.8-1.2l-.5-1.2c-.4-1,0-2.2,1.1-2.6ZM110.2,27c1-.4,2.2,0,2.6,1.1l.5,1.2c.4,1,0,2.1-1.1,2.6-.2.1-.5.1-.8.1-.8,0-1.5-.5-1.8-1.2l-.5-1.2c-.4-1,0-2.1,1.1-2.6ZM83.8,39.6c.9-.6,2.1-.4,2.7.5l25.7,37.1c.6.9.4,2.1-.5,2.7-.3.2-.7.3-1.1.3-.6,0-1.2-.3-1.6-.8l-25.7-37.1c-.6-.9-.4-2.1.5-2.7ZM75.8,66.5c.8-.8,2-.8,2.8,0l.9.9c.8.8.8,2,0,2.8s-.9.6-1.4.6-1-.2-1.4-.6l-.9-.9c-.8-.8-.8-2,0-2.8h0ZM65.8,56.6c.8-.8,2-.8,2.8,0l.9.9c.8.8.8,2,0,2.8-.4.4-.9.6-1.4.6s-1-.2-1.4-.6l-.9-.9c-.8-.8-.8-2,0-2.8ZM46.3,78.3c.6-.9,1.8-1.2,2.7-.6l38,24.4c.9.6,1.2,1.8.6,2.7-.4.6-1,.9-1.7.9s-.7,0-1.1-.3l-38-24.4c-.9-.6-1.2-1.8-.6-2.7ZM78.4,120.3c-.2,0-.5,0-.8-.2l-1.2-.5c-1-.4-1.5-1.6-1.1-2.6.4-1,1.6-1.5,2.6-1.1l1.2.5c1,.4,1.5,1.6,1.1,2.6-.3.8-1.1,1.2-1.8,1.2h0ZM77.7,190.2l-1.2.5c-.2.1-.5.1-.8.1-.8,0-1.5-.5-1.8-1.2-.4-1,0-2.1,1.1-2.6l1.2-.5c1-.4,2.2,0,2.6,1.1s0,2.1-1.1,2.6h0ZM67.1,113.6c-.3.8-1.1,1.2-1.8,1.2s-.5,0-.8-.2l-1.2-.5c-1-.4-1.5-1.6-1.1-2.6.4-1,1.6-1.5,2.6-1.1l1.2.5c1,.4,1.5,1.6,1.1,2.6ZM54.1,108.2c-.3.8-1,1.2-1.8,1.2s-.5,0-.8-.2l-1.2-.5c-1-.4-1.5-1.6-1.1-2.6.4-1,1.6-1.5,2.6-1.1l1.2.5c1,.4,1.5,1.6,1.1,2.6h0ZM36.2,100.8c.4-1,1.6-1.5,2.6-1.1l1.2.5c1,.4,1.5,1.6,1.1,2.6-.3.8-1,1.2-1.8,1.2s-.5,0-.8-.2l-1.2-.5c-1-.4-1.5-1.6-1.1-2.6h0ZM26.5,128.4c.2-1.1,1.2-1.8,2.3-1.6l44.5,8.1c1.1.2,1.8,1.2,1.6,2.3-.2.9-1,1.6-1.9,1.6s-.2,0-.3,0l-44.5-8.1c-1.1-.2-1.8-1.2-1.6-2.3h0ZM71.9,153.1c0,1.1-.9,2-2,2h-1.3c-1.1,0-2-.9-2-2s.9-2,2-2h1.3c1.1,0,2,.9,2,2ZM57.8,153.1c0,1.1-.9,2-2,2h-1.3c-1.1,0-2-.9-2-2s.9-2,2-2h1.3c1.1,0,2,.9,2,2ZM43.7,153.1c0,1.1-.9,2-2,2h-1.3c-1.1,0-2-.9-2-2s.9-2,2-2h1.3c1.1,0,2,.9,2,2ZM24.3,153.1c0-1.1.9-2,2-2h1.3c1.1,0,2,.9,2,2s-.9,2-2,2h-1.3c-1.1,0-2-.9-2-2ZM29.3,183.8c-.9,0-1.7-.6-1.9-1.6-.2-1.1.4-2.1,1.5-2.3l44.2-9.5c1.1-.2,2.1.4,2.3,1.5.2,1.1-.4,2.1-1.5,2.3l-44.2,9.5c-.1,0-.3,0-.4,0h0ZM64.7,195.6l-1.2.5c-.2.1-.5.1-.8.1-.8,0-1.5-.5-1.8-1.2-.4-1,0-2.1,1.1-2.6l1.2-.5c1-.4,2.2,0,2.6,1.1.4,1,0,2.1-1.1,2.6h0ZM38.6,206.4l-1.2.5c-.2.1-.5.1-.8.1-.8,0-1.5-.4-1.8-1.2-.4-1,0-2.1,1.1-2.6l1.2-.5c1-.4,2.2,0,2.6,1.1.4,1,0,2.1-1.1,2.6h0ZM47.9,200.5c-.4-1,0-2.1,1.1-2.6l1.2-.5c1-.4,2.2,0,2.6,1.1.4,1,0,2.1-1.1,2.6l-1.2.5c-.2.1-.5.1-.8.1-.8,0-1.5-.4-1.8-1.2h0ZM68.5,249.7l-.9.9c-.4.4-.9.6-1.4.6s-1-.2-1.4-.6c-.8-.8-.8-2,0-2.8l.9-.9c.8-.8,2-.8,2.8,0,.8.8.8,2,0,2.8h0ZM78.4,239.8l-.9.9c-.4.4-.9.6-1.4.6s-1-.2-1.4-.6c-.8-.8-.8-2,0-2.8l.9-.9c.8-.8,2-.8,2.8,0,.8.8.8,2,0,2.8ZM51.6,232.1c-.3.2-.7.4-1.1.4-.6,0-1.2-.3-1.6-.9-.6-.9-.4-2.1.5-2.7l37.2-25.7c.9-.6,2.1-.4,2.7.5.6.9.4,2.1-.5,2.7l-37.2,25.7h0Z"/>
        <path id="circulo" class="cls-7" d="M141.9,361.1s0,0-.1,0c-.2,0-.5,0-.7,0-.9,0-1.8.3-2.6.5-.6.2-1.2.5-1.7.8-.1,0-.2.1-.4.2-.6.4-1.2.9-1.8,1.4-.7.6-1.3,1.4-1.8,2.2-.3.5-.6,1-.8,1.6-.5,1.2-.7,2.5-.7,3.9s0,1.4.2,2.1c.2,1,.6,2,1.1,2.9.2.5.5.9.8,1.3.6.8,1.2,1.4,2,2h0c.4.3.9.7,1.4.9.6.3,1.2.6,1.9.8,1,.3,2.1.5,3.2.5s.6,0,1,0c5.4-.5,9.6-5,9.6-10.5s-4.8-10.6-10.6-10.6h0Z"/>
        <path id="circulo-2" data-name="circulo" class="cls-7" d="M19,309c0-2.6-1.7-4.9-4.1-5.7-.6-.2-1.3-.3-2-.3s-1.4.1-2,.3c-2.4.8-4.1,3.1-4.1,5.7s1.7,4.9,4.1,5.7c.6.2,1.3.3,2,.3s1.4-.1,2-.3c2.4-.8,4.1-3.1,4.1-5.7Z"/>
        <path id="circulo-3" data-name="circulo" class="cls-7" d="M314,303.2c-.6-.2-1.3-.3-2-.3s-1.4.1-2,.3c-2.4.8-4.1,3.1-4.1,5.7s1.7,4.9,4.1,5.7c.6.2,1.3.3,2,.3s1.4-.1,2-.3c2.4-.8,4.1-3.1,4.1-5.7s-1.7-4.9-4.1-5.7Z"/>
        <path class="cls-5" d="M129.7,336.6c2.8,7.2,4.8,14.8,6.1,21.9.6-.3,1.3-.6,2-.8l2.7-12.4h-.6c-1.1,0-2-.9-2-2s.3-1.3.9-1.6c-1.8-3.8-4.6-10-7.1-17.3h-7.5c2,3.7,3.8,7.7,5.5,12.2h0Z"/>
        <path id="hoja-2" data-name="hoja" class="cls-7" d="M117.3,320.5c-3.5-5.3-7.3-9.3-11.2-11.2-1.6-.8-3.1-1.1-4.6-1.1-2.6,0-5.1,1.2-7.6,3.5-2.9,2.8-4.8,5.7-5.7,8.8-.4,1.3-.6,2.6-.7,3.9,0,1.1,0,2.3.1,3.4,1.6,11.8,13.8,24,25.5,33.2.6.5,1.1.9,1.7,1.3,4.6,3.5,9,6.5,12.6,8.8,0-1,.2-2,.4-3-.6-1-1.2-2.1-1.8-3.3-.6-1-1.2-2-1.8-3.1-2.9-4.9-6.4-10.5-10.4-16.7-.6-.9-1.1-1.7-1.7-2.6-.2-.4-.3-.7-.3-1.1,0-.6.3-1.2.9-1.6.9-.6,2.1-.3,2.7.6,5.9,9,10.7,16.8,14.4,23.3.7-1,1.5-1.9,2.4-2.7-.9-5.2-2.2-10.7-3.8-16.1-.4-1.2-.7-2.3-1.2-3.5-2.1-6.1-4.7-11.9-7.5-17-.8-1.4-1.6-2.7-2.4-3.9h0Z"/>
        <path class="cls-2" d="M146.7,385.3s0,0,.1.1c0,0,0-.1,0-.2,0,0-.1,0-.2,0h0Z"/>
        <path id="circulo-4" data-name="circulo" class="cls-7" d="M137.6,386c-.6,0-1.3,0-1.9.2-1.6.3-3.2,1-4.4,2-2.6,1.9-4.2,5-4.2,8.4s.5,3.6,1.3,5.1c.8,1.4,1.9,2.7,3.2,3.6,1.7,1.2,3.8,1.9,6,1.9,5.8,0,10.6-4.7,10.6-10.6s-4.7-10.6-10.6-10.6h0Z"/>
        <path class="cls-1" d="M104.6,428.4h15.4v63.2h-15.4v-63.2Z"/>
        <path class="cls-1" d="M123.9,428.4h15.6v63.2h-15.6v-63.2Z"/>
        <path class="cls-1" d="M143.5,428.4h15.7v63.2h-15.7v-63.2Z"/>
        <path class="cls-1" d="M85.4,484.1c0,4.2,3.4,7.5,7.6,7.5h7.7v-63.2h-15.3v55.7Z"/>
        <path class="cls-1" d="M163.1,428.4h15.3v63.2h-15.3v-63.2Z"/>
        <path class="cls-1" d="M203,428.4h16.3v63.2h-16.3v-63.2Z"/>
        <path class="cls-1" d="M182.3,428.4h16.8v63.2h-16.8v-63.2Z"/>
        <path class="cls-1" d="M223.2,491.6h8.8c4.2,0,7.6-3.4,7.6-7.5v-55.7h-16.4v63.2Z"/>
        <path class="cls-1" d="M225.9,222.2c-1.1,0-2-.9-2-2s.6-1.6,1.3-1.8c.2,0,.4-.1.6-.1h7.8c-.4-5.7-2.5-11.1-6-15.4-.8-1-1.7-2-2.7-3-1.3-1.2-2.7-2.4-4.3-3.4-2.8-1.8-5.7-3.4-8.6-4.9-1.2-.6-2.4-1.2-3.6-1.8-29.4-13.9-63.9-13.7-93.2.5-.6.3-1.2.6-1.9.9-3.1,1.6-6.2,3.3-9.2,5.2-1.6,1-3,2.1-4.3,3.4-1,.9-1.9,1.9-2.7,3-3.5,4.4-5.6,9.8-6,15.4h109.6c1,0,1.8.8,1.9,1.7,0,0,0,.1,0,.2,0,1.1-.9,2-2,2h-115.5v94.5c1.3-2.8,3.2-5.4,5.8-7.9,5.1-4.9,10.8-5.9,16.6-3.1,4.8,2.4,9.7,7.5,14.1,14.7h8.4c-.1-.4-.2-.7-.4-1.1-2-6.2-3.4-11.9-4.3-17.1-.2-1.5-.4-2.8-.6-4.2-1.1-9.5-.3-17.1,2.6-23,2.6-5.3,6.8-8.9,12.6-10.9,1.3-.5,2.7-.8,4.2-1.1.1,0,.2,0,.3,0,6.9-1.2,12.3,1.1,15.6,6.7.4.7.8,1.5,1.1,2.3.6,1.5,1.1,3.1,1.5,4.8.6,2.8.9,6,1,9.5,0,1.3,0,2.7,0,4.1-.2,3.8-.7,8-1.5,12.3-.2,1.3-.5,2.6-.8,3.9,0,.3-.1.5-.2.8-1,4.4-2.3,8.7-3.8,12.9h82v-98.2h-13.7Z"/>
        <path id="circulo-5" data-name="circulo" class="cls-7" d="M161.1,398.5c5.8,0,10.6-4.7,10.6-10.6s-.2-2.4-.6-3.5c-.4-1.1-1-2.2-1.8-3.1-1.9-2.4-4.9-3.9-8.2-3.9-5.8,0-10.6,4.7-10.6,10.6s4.7,10.6,10.6,10.6h0Z"/>
        <g class="cls-8">
          <g class="cls-4">
            <path class="cls-6" d="M0-3.5v499h325V-3.5H0Z"/>
          </g>
        </g>
      </g>
    </g>
  </g>
</svg>